<?xml version="1.0" encoding="UTF-8" standalone="no"?>
<!DOCTYPE svg PUBLIC "-//W3C//DTD SVG 1.1//EN" "http://www.w3.org/Graphics/SVG/1.1/DTD/svg11.dtd">
<svg width="100%" height="100%" viewBox="0 0 212 227" version="1.1" xmlns="http://www.w3.org/2000/svg" xmlns:xlink="http://www.w3.org/1999/xlink" xml:space="preserve" xmlns:serif="http://www.serif.com/" style="fill-rule:evenodd;clip-rule:evenodd;stroke-linejoin:round;stroke-miterlimit:2;">
    <g transform="matrix(1,0,0,1,-1203,-89)">
        <g transform="matrix(1.12581,0,0,1.12581,392.098,-58.7946)">
            <g>
                <g>
                    <path d="M892.025,197.369L788.293,137.471C787.245,136.867 786.679,136.083 786.613,135.29L786.603,135.29L786.603,167.199C786.518,168.114 787.094,169.039 788.292,169.728L869.246,216.47C878.793,221.982 890.882,218.473 896.283,208.863C896.31,208.814 896.338,208.767 896.365,208.72C898.666,204.855 896.943,200.211 892.025,197.369Z" style="fill:rgb(27,0,68);fill-rule:nonzero;"/>
                </g>
                <g>
                    <path d="M898.615,214.786C887.948,220.959 872.823,220.898 862.165,214.725L757.736,155.112C756.615,154.461 756.049,153.601 756.049,152.752L756.049,265.461C756.077,266.292 756.643,267.123 757.736,267.746L861.3,327.644C871.967,333.808 889.325,333.808 899.992,327.644C905.138,324.662 907.607,320.759 907.964,316.865C907.977,316.732 907.984,203.037 907.984,203.037C907.984,207.097 903.939,211.699 898.615,214.786Z" style="fill:rgb(2,38,119);fill-rule:nonzero;"/>
                </g>
                <g>
                    <path d="M756.05,152.648L756.05,152.752C756.05,152.715 756.05,152.687 756.06,152.648L756.05,152.648Z" style="fill:rgb(67,0,23);fill-rule:nonzero;"/>
                </g>
                <g>
                    <path d="M900.225,192.636L796.489,132.741C794.225,131.434 790.555,131.434 788.293,132.741C786.029,134.048 786.029,136.167 788.293,137.473L892.029,197.367C898.192,200.926 898.192,206.715 892.029,210.273C885.866,213.831 875.839,213.832 869.675,210.273L765.938,150.38C763.674,149.073 760.004,149.073 757.742,150.38C755.48,151.687 755.478,153.806 757.742,155.112L861.479,215.006C872.161,221.174 887.469,224.209 900.224,215.006C910.229,207.789 910.907,198.803 900.225,192.636Z" style="fill:rgb(27,0,68);fill-rule:nonzero;"/>
                </g>
                <g>
                    <g>
                        <path d="M907.984,248.842C907.451,251.405 905.271,254.163 901.724,256.722C887.351,267.094 871.177,259.205 866.562,256.54L843.867,243.436C842.287,242.525 840.266,243.065 839.353,244.646C838.441,246.225 838.983,248.246 840.563,249.159L863.258,262.263C870.523,266.457 878.079,268.552 885.301,268.552C892.629,268.552 904.64,264.732 907.984,258.406L907.984,248.842Z" style="fill:rgb(27,0,68);fill-rule:nonzero;"/>
                    </g>
                </g>
                <g>
                    <g>
                        <path d="M907.984,266.338C907.451,268.902 905.271,271.66 901.724,274.219C887.351,284.591 871.177,276.702 866.562,274.037L843.867,260.933C842.287,260.021 840.266,260.562 839.353,262.142C838.441,263.722 838.983,265.743 840.563,266.656L863.258,279.76C870.523,283.954 878.079,286.049 885.301,286.049C892.629,286.049 904.64,282.229 907.984,275.903L907.984,266.338Z" style="fill:rgb(27,0,68);fill-rule:nonzero;"/>
                    </g>
                </g>
                <g>
                    <g>
                        <path d="M907.984,283.836C907.451,286.399 905.271,289.157 901.724,291.716C887.351,302.088 871.177,294.199 866.562,291.534L843.867,278.43C842.287,277.519 840.266,278.059 839.353,279.64C838.441,281.219 838.983,283.24 840.563,284.153L863.258,297.257C870.523,301.451 878.079,303.546 885.301,303.546C892.629,303.546 904.64,299.726 907.984,293.4L907.984,283.836Z" style="fill:rgb(27,0,68);fill-rule:nonzero;"/>
                    </g>
                </g>
                <g>
                    <g>
                        <clipPath id="_clip1">
                            <path d="M892.025,210.272C885.862,213.831 875.837,213.831 869.674,210.272L765.941,150.382C763.676,149.07 760.004,149.07 757.739,150.382L788.293,132.741L802.838,119.311L892.169,171.848L892.025,197.368C898.189,200.928 898.189,206.714 892.025,210.272Z"/>
                        </clipPath>
                        <g clip-path="url(#_clip1)">
                            <g>
                                <g>
                                    <path d="M879.458,174.806L821.889,141.564L821.889,207.42L890.792,247.204L890.792,194.438C890.792,186.34 886.472,178.855 879.458,174.806Z" style="fill:rgb(21,87,119);fill-rule:nonzero;"/>
                                </g>
                                <g>
                                    <g>
                                        <path d="M889.453,248.197C889.221,248.197 888.989,248.136 888.781,248.017L830.885,214.587C830.469,214.347 830.212,213.903 830.212,213.423L830.212,158.149C830.212,157.669 830.469,157.224 830.885,156.984C831.301,156.744 831.814,156.744 832.229,156.984L883.574,186.633C888.038,189.24 890.799,194.155 890.799,199.474L890.799,246.852C890.799,247.332 890.542,247.776 890.126,248.017C889.917,248.137 889.686,248.197 889.453,248.197ZM832.901,212.647L888.108,244.523L888.108,199.474C888.108,195.108 885.859,191.082 882.237,188.966L832.901,160.478L832.901,212.647Z" style="fill:rgb(2,38,119);fill-rule:nonzero;"/>
                                    </g>
                                </g>
                            </g>
                            <g>
                                <g>
                                    <path d="M873.675,166.599L816.105,133.357L816.105,199.213L885.009,238.997L885.009,186.231C885.009,178.133 880.688,170.648 873.675,166.599Z" style="fill:rgb(2,38,119);fill-rule:nonzero;"/>
                                </g>
                                <g>
                                    <g>
                                        <path d="M883.669,239.99C883.437,239.99 883.205,239.93 882.997,239.81L825.101,206.38C824.685,206.14 824.429,205.696 824.429,205.216L824.429,149.942C824.429,149.462 824.685,149.017 825.101,148.777C825.517,148.537 826.03,148.537 826.446,148.777L877.79,178.426C882.254,181.033 885.015,185.949 885.015,191.267L885.015,238.645C885.015,239.125 884.759,239.57 884.343,239.81C884.134,239.931 883.901,239.99 883.669,239.99ZM827.117,204.44L882.325,236.317L882.325,191.267C882.325,186.902 880.075,182.875 876.453,180.759L827.117,152.271L827.117,204.44Z" style="fill:rgb(2,38,119);fill-rule:nonzero;"/>
                                    </g>
                                </g>
                            </g>
                            <g>
                                <g>
                                    <path d="M866.614,164.574L809.045,131.332L809.045,197.188L877.948,236.972L877.948,184.206C877.948,176.107 873.628,168.624 866.614,164.574Z" style="fill:rgb(11,222,174);fill-rule:nonzero;"/>
                                </g>
                                <g>
                                    <g>
                                        <path d="M876.609,237.965C876.377,237.965 876.145,237.905 875.936,237.785L818.04,204.356C817.624,204.116 817.367,203.671 817.367,203.191L817.367,147.918C817.367,147.438 817.624,146.993 818.04,146.753C818.456,146.513 818.969,146.513 819.384,146.753L870.729,176.402C875.193,179.009 877.954,183.925 877.954,189.242L877.954,236.621C877.954,237.101 877.698,237.545 877.281,237.785C877.073,237.905 876.842,237.965 876.609,237.965ZM820.058,202.416L875.265,234.293L875.265,189.242C875.265,184.877 873.016,180.851 869.394,178.735L820.058,150.246L820.058,202.416Z" style="fill:rgb(2,38,119);fill-rule:nonzero;"/>
                                    </g>
                                </g>
                            </g>
                            <g>
                                <g>
                                    <path d="M845.273,185.91L781.883,149.723L781.883,230.022L844.656,266.329C852.254,270.719 864.615,270.719 872.213,266.329C875.877,264.205 877.637,261.426 877.891,258.652C877.9,258.557 877.905,183.34 877.905,183.34C877.905,186.23 868.293,196.395 845.273,185.91Z" style="fill:rgb(11,222,174);fill-rule:nonzero;"/>
                                </g>
                                <g>
                                    <path d="M857.926,258.865C854.672,258.865 851.532,258.174 849.529,257.015L792.13,223.818L792.13,168.249L839.432,195.251C844.774,198.345 851.134,199.984 857.809,199.984C866.091,199.984 872.106,199.72 877.401,195.069L877.401,191.651C874.055,194.6 869.506,197.296 857.809,197.296C851.606,197.296 845.697,195.773 840.765,192.916L789.441,163.617L789.441,225.369L848.184,259.344C850.616,260.749 854.166,261.555 857.927,261.555C871.309,261.555 877.27,254.416 877.39,254.225C877.391,253.657 877.392,252.708 877.392,251.442C873.534,255.503 867.755,258.865 857.926,258.865Z" style="fill:rgb(2,38,119);fill-rule:nonzero;"/>
                                </g>
                            </g>
                            <g>
                                <g>
                                    <path d="M852.329,187.935L788.939,151.749L788.939,232.047L851.712,268.354C859.309,272.744 871.671,272.744 879.268,268.354C882.933,266.23 884.692,263.452 884.947,260.677C884.955,260.582 884.96,184.766 884.96,184.766C884.96,187.656 875.349,198.42 852.329,187.935Z" style="fill:rgb(21,87,119);fill-rule:nonzero;"/>
                                </g>
                                <g>
                                    <path d="M865.491,260.891C862.237,260.891 859.098,260.2 857.094,259.041L799.695,225.843L799.695,170.274L846.997,197.276C852.34,200.37 858.699,202.01 865.374,202.01C873.657,202.01 879.672,201.746 884.966,197.094C884.967,195.946 884.967,194.805 884.967,193.676C881.62,196.625 877.072,199.321 865.374,199.321C859.172,199.321 853.263,197.798 848.33,194.941L797.007,165.643L797.007,227.395L855.75,261.37C858.181,262.774 861.731,263.58 865.492,263.58C878.874,263.58 884.835,256.441 884.956,256.251C884.956,255.683 884.957,254.733 884.957,253.468C881.101,257.527 875.32,260.891 865.491,260.891Z" style="fill:rgb(2,38,119);fill-rule:nonzero;"/>
                                </g>
                            </g>
                            <g>
                                <g>
                                    <path d="M858.161,197.662L794.771,161.475L794.771,241.773L857.544,278.081C865.141,282.471 877.503,282.471 885.1,278.081C888.765,275.957 890.524,273.178 890.778,270.404C890.787,270.309 890.792,192.725 890.792,192.725C890.792,195.616 881.181,208.146 858.161,197.662Z" style="fill:rgb(11,222,174);fill-rule:nonzero;"/>
                                </g>
                                <g>
                                    <path d="M871.323,270.617C868.069,270.617 864.93,269.926 862.926,268.767L805.527,235.57L805.527,180L852.829,207.003C858.172,210.097 864.531,211.736 871.206,211.736C879.489,211.736 885.504,211.472 890.798,206.821C890.798,205.672 890.799,204.531 890.799,203.403C887.452,206.352 882.904,209.048 871.206,209.048C865.003,209.048 859.095,207.524 854.162,204.668L802.839,175.369L802.839,237.121L861.582,271.096C864.013,272.501 867.563,273.307 871.324,273.307C884.706,273.307 890.667,266.168 890.788,265.977C890.788,265.409 890.789,264.459 890.789,263.194C886.933,267.255 881.152,270.617 871.323,270.617Z" style="fill:rgb(2,38,119);fill-rule:nonzero;"/>
                                </g>
                            </g>
                        </g>
                    </g>
                </g>
                <g>
                    <g id="XMLID_738_">
                        <g>
                            <path d="M781.895,211.704L756.818,197.074C754.662,195.816 752.008,195.761 749.802,196.929L748.332,197.708L785.214,237.783L789.047,235.758C790.87,234.698 792.005,232.438 792.005,229.21C792.005,222.765 787.483,214.924 781.895,211.704Z" style="fill:rgb(27,0,68);fill-rule:nonzero;"/>
                        </g>
                    </g>
                    <g id="XMLID_737_">
                        <g>
                            <path d="M777.355,213.033L750.856,197.735C749.227,196.795 747.191,197.97 747.191,199.851L747.191,212.946C747.191,216.67 749.177,220.109 752.401,221.97L778.325,236.937C781.119,238.55 783.641,238.7 785.473,237.646C788.017,236.171 789.213,232.371 787.884,226.874C786.467,221.013 782.577,216.049 777.355,213.033Z" style="fill:rgb(2,38,119);fill-rule:nonzero;"/>
                        </g>
                    </g>
                </g>
                <g>
                    <g>
                        <g>
                            <path d="M778.812,219.109C775.753,217.345 773.275,218.775 773.275,222.306C773.275,225.835 775.754,230.128 778.81,231.892C781.867,233.658 784.345,232.227 784.345,228.697C784.345,225.167 781.866,220.875 778.812,219.109Z" style="fill:rgb(27,0,68);fill-rule:nonzero;"/>
                        </g>
                    </g>
                </g>
                <g>
                    <g>
                        <g>
                            <path d="M777.546,220.955C775.021,219.499 772.974,220.679 772.974,223.596C772.974,226.511 775.021,230.056 777.544,231.513C780.069,232.971 782.116,231.789 782.116,228.873C782.116,225.958 780.069,222.413 777.546,220.955Z" style="fill:white;fill-rule:nonzero;"/>
                        </g>
                    </g>
                </g>
            </g>
            <g>
                <g>
                    <path d="M794.477,269.531C794.07,268.734 786.319,253.578 759.769,239.261C733.22,224.946 725.411,231.712 725,232.069L721.021,236.906C721.432,236.55 729.24,229.783 755.79,244.098C782.339,258.413 790.09,273.57 790.498,274.369C790.531,275.734 791.163,301.68 784.921,314.956C784.402,316.058 781.737,319.41 780.828,320.105C783.15,318.33 785.629,316.489 788.9,310.119C795.602,297.07 794.51,270.897 794.477,269.531Z" style="fill:rgb(181,196,209);fill-rule:nonzero;"/>
                </g>
                <g>
                    <path d="M790.497,274.368C790.089,273.57 782.338,258.414 755.789,244.098C729.239,229.783 721.432,236.549 721.02,236.906C720.98,238.231 720.212,263.425 726.367,283.385C732.52,303.336 755.558,324.901 755.575,324.918C755.593,324.919 778.678,328.224 784.92,314.956C791.162,301.68 790.53,275.734 790.497,274.368Z" style="fill:rgb(234,233,236);fill-rule:nonzero;"/>
                </g>
                <g>
                    <path d="M755.767,252.526C740.497,244.293 732.929,244.415 729.911,245.109C729.913,254.024 730.759,272.029 734.799,285.125C738.081,295.752 748.919,308.596 755.601,315.567C762.301,315.81 773.184,314.67 776.506,307.613C780.934,298.209 781.528,280.252 781.582,272.963C778.557,269.002 771.021,260.75 755.767,252.526Z" style="fill:rgb(255,62,111);fill-rule:nonzero;"/>
                </g>
                <g>
                    <path d="M771.367,274.661L753.926,281.138L745.679,268.968L739.543,271.45L752.53,290.727L776.098,281.977L771.367,274.661Z" style="fill:rgb(197,40,135);fill-rule:nonzero;"/>
                </g>
                <g>
                    <g>
                        <clipPath id="_clip2">
                            <path d="M769.209,276.819L751.768,283.296L743.521,271.126L737.385,273.607L750.372,292.885L773.939,284.135L769.209,276.819Z"/>
                        </clipPath>
                        <g clip-path="url(#_clip2)">
                            <path d="M758.792,271.126L740.522,281.694L737.385,277.14L737.385,271.126L758.792,271.126Z" style="fill:white;fill-rule:nonzero;"/>
                        </g>
                        <clipPath id="_clip3">
                            <path d="M769.209,276.819L751.768,283.296L743.521,271.126L737.385,273.607L750.372,292.885L773.939,284.135L769.209,276.819Z"/>
                        </clipPath>
                        <g clip-path="url(#_clip3)">
                            <path d="M760.87,271.126L741.115,282.555L740.522,281.694L758.792,271.126L760.87,271.126Z" style="fill:white;fill-rule:nonzero;"/>
                        </g>
                        <clipPath id="_clip4">
                            <path d="M769.209,276.819L751.768,283.296L743.521,271.126L737.385,273.607L750.372,292.885L773.939,284.135L769.209,276.819Z"/>
                        </clipPath>
                        <g clip-path="url(#_clip4)">
                            <path d="M762.948,271.126L741.707,283.414L741.115,282.555L760.87,271.126L762.948,271.126Z" style="fill:rgb(254,254,255);fill-rule:nonzero;"/>
                        </g>
                        <clipPath id="_clip5">
                            <path d="M769.209,276.819L751.768,283.296L743.521,271.126L737.385,273.607L750.372,292.885L773.939,284.135L769.209,276.819Z"/>
                        </clipPath>
                        <g clip-path="url(#_clip5)">
                            <path d="M765.026,271.126L742.299,284.273L741.707,283.414L762.948,271.126L765.026,271.126Z" style="fill:rgb(253,253,255);fill-rule:nonzero;"/>
                        </g>
                        <clipPath id="_clip6">
                            <path d="M769.209,276.819L751.768,283.296L743.521,271.126L737.385,273.607L750.372,292.885L773.939,284.135L769.209,276.819Z"/>
                        </clipPath>
                        <g clip-path="url(#_clip6)">
                            <path d="M767.104,271.126L742.892,285.133L742.299,284.273L765.026,271.126L767.104,271.126Z" style="fill:rgb(252,252,254);fill-rule:nonzero;"/>
                        </g>
                        <clipPath id="_clip7">
                            <path d="M769.209,276.819L751.768,283.296L743.521,271.126L737.385,273.607L750.372,292.885L773.939,284.135L769.209,276.819Z"/>
                        </clipPath>
                        <g clip-path="url(#_clip7)">
                            <path d="M767.428,271.126L767.928,271.852L743.483,285.992L742.892,285.133L767.104,271.126L767.428,271.126Z" style="fill:rgb(251,251,254);fill-rule:nonzero;"/>
                        </g>
                        <clipPath id="_clip8">
                            <path d="M769.209,276.819L751.768,283.296L743.521,271.126L737.385,273.607L750.372,292.885L773.939,284.135L769.209,276.819Z"/>
                        </clipPath>
                        <g clip-path="url(#_clip8)">
                            <path d="M767.928,271.852L768.521,272.711L744.075,286.853L743.483,285.992L767.928,271.852Z" style="fill:rgb(250,250,254);fill-rule:nonzero;"/>
                        </g>
                        <clipPath id="_clip9">
                            <path d="M769.209,276.819L751.768,283.296L743.521,271.126L737.385,273.607L750.372,292.885L773.939,284.135L769.209,276.819Z"/>
                        </clipPath>
                        <g clip-path="url(#_clip9)">
                            <path d="M768.521,272.711L769.112,273.571L744.668,287.712L744.075,286.853L768.521,272.711Z" style="fill:rgb(249,249,254);fill-rule:nonzero;"/>
                        </g>
                        <clipPath id="_clip10">
                            <path d="M769.209,276.819L751.768,283.296L743.521,271.126L737.385,273.607L750.372,292.885L773.939,284.135L769.209,276.819Z"/>
                        </clipPath>
                        <g clip-path="url(#_clip10)">
                            <path d="M769.112,273.571L769.704,274.431L745.26,288.571L744.668,287.712L769.112,273.571Z" style="fill:rgb(248,248,254);fill-rule:nonzero;"/>
                        </g>
                        <clipPath id="_clip11">
                            <path d="M769.209,276.819L751.768,283.296L743.521,271.126L737.385,273.607L750.372,292.885L773.939,284.135L769.209,276.819Z"/>
                        </clipPath>
                        <g clip-path="url(#_clip11)">
                            <path d="M769.704,274.431L770.297,275.29L745.853,289.432L745.26,288.571L769.704,274.431Z" style="fill:rgb(247,247,253);fill-rule:nonzero;"/>
                        </g>
                        <clipPath id="_clip12">
                            <path d="M769.209,276.819L751.768,283.296L743.521,271.126L737.385,273.607L750.372,292.885L773.939,284.135L769.209,276.819Z"/>
                        </clipPath>
                        <g clip-path="url(#_clip12)">
                            <path d="M770.297,275.29L770.889,276.15L746.444,290.291L745.853,289.432L770.297,275.29Z" style="fill:rgb(246,246,253);fill-rule:nonzero;"/>
                        </g>
                        <clipPath id="_clip13">
                            <path d="M769.209,276.819L751.768,283.296L743.521,271.126L737.385,273.607L750.372,292.885L773.939,284.135L769.209,276.819Z"/>
                        </clipPath>
                        <g clip-path="url(#_clip13)">
                            <path d="M770.889,276.15L771.481,277.01L747.036,291.15L746.444,290.291L770.889,276.15Z" style="fill:rgb(245,245,253);fill-rule:nonzero;"/>
                        </g>
                        <clipPath id="_clip14">
                            <path d="M769.209,276.819L751.768,283.296L743.521,271.126L737.385,273.607L750.372,292.885L773.939,284.135L769.209,276.819Z"/>
                        </clipPath>
                        <g clip-path="url(#_clip14)">
                            <path d="M771.481,277.01L772.073,277.869L747.629,292.01L747.036,291.15L771.481,277.01Z" style="fill:rgb(244,244,253);fill-rule:nonzero;"/>
                        </g>
                        <clipPath id="_clip15">
                            <path d="M769.209,276.819L751.768,283.296L743.521,271.126L737.385,273.607L750.372,292.885L773.939,284.135L769.209,276.819Z"/>
                        </clipPath>
                        <g clip-path="url(#_clip15)">
                            <path d="M772.073,277.869L772.665,278.729L748.221,292.869L747.629,292.01L772.073,277.869Z" style="fill:rgb(243,244,253);fill-rule:nonzero;"/>
                        </g>
                        <clipPath id="_clip16">
                            <path d="M769.209,276.819L751.768,283.296L743.521,271.126L737.385,273.607L750.372,292.885L773.939,284.135L769.209,276.819Z"/>
                        </clipPath>
                        <g clip-path="url(#_clip16)">
                            <path d="M772.665,278.729L773.258,279.588L750.272,292.885L748.231,292.885L748.221,292.869L772.665,278.729Z" style="fill:rgb(242,243,252);fill-rule:nonzero;"/>
                        </g>
                        <clipPath id="_clip17">
                            <path d="M769.209,276.819L751.768,283.296L743.521,271.126L737.385,273.607L750.372,292.885L773.939,284.135L769.209,276.819Z"/>
                        </clipPath>
                        <g clip-path="url(#_clip17)">
                            <path d="M773.258,279.588L773.85,280.448L752.351,292.885L750.272,292.885L773.258,279.588Z" style="fill:rgb(241,242,252);fill-rule:nonzero;"/>
                        </g>
                        <clipPath id="_clip18">
                            <path d="M769.209,276.819L751.768,283.296L743.521,271.126L737.385,273.607L750.372,292.885L773.939,284.135L769.209,276.819Z"/>
                        </clipPath>
                        <g clip-path="url(#_clip18)">
                            <path d="M773.85,280.448L773.939,280.579L773.939,281.598L754.429,292.885L752.351,292.885L773.85,280.448Z" style="fill:rgb(240,241,252);fill-rule:nonzero;"/>
                        </g>
                        <clipPath id="_clip19">
                            <path d="M769.209,276.819L751.768,283.296L743.521,271.126L737.385,273.607L750.372,292.885L773.939,284.135L769.209,276.819Z"/>
                        </clipPath>
                        <g clip-path="url(#_clip19)">
                            <path d="M773.939,282.8L756.507,292.885L754.429,292.885L773.939,281.598L773.939,282.8Z" style="fill:rgb(239,240,252);fill-rule:nonzero;"/>
                        </g>
                        <clipPath id="_clip20">
                            <path d="M769.209,276.819L751.768,283.296L743.521,271.126L737.385,273.607L750.372,292.885L773.939,284.135L769.209,276.819Z"/>
                        </clipPath>
                        <g clip-path="url(#_clip20)">
                            <path d="M773.939,284.002L758.585,292.885L756.507,292.885L773.939,282.8L773.939,284.002Z" style="fill:rgb(238,239,251);fill-rule:nonzero;"/>
                        </g>
                        <clipPath id="_clip21">
                            <path d="M769.209,276.819L751.768,283.296L743.521,271.126L737.385,273.607L750.372,292.885L773.939,284.135L769.209,276.819Z"/>
                        </clipPath>
                        <g clip-path="url(#_clip21)">
                            <path d="M773.939,285.204L760.663,292.885L758.585,292.885L773.939,284.002L773.939,285.204Z" style="fill:rgb(237,238,251);fill-rule:nonzero;"/>
                        </g>
                        <clipPath id="_clip22">
                            <path d="M769.209,276.819L751.768,283.296L743.521,271.126L737.385,273.607L750.372,292.885L773.939,284.135L769.209,276.819Z"/>
                        </clipPath>
                        <g clip-path="url(#_clip22)">
                            <path d="M773.939,286.406L762.741,292.885L760.663,292.885L773.939,285.204L773.939,286.406Z" style="fill:rgb(236,237,251);fill-rule:nonzero;"/>
                        </g>
                        <clipPath id="_clip23">
                            <path d="M769.209,276.819L751.768,283.296L743.521,271.126L737.385,273.607L750.372,292.885L773.939,284.135L769.209,276.819Z"/>
                        </clipPath>
                        <g clip-path="url(#_clip23)">
                            <path d="M773.939,287.609L764.819,292.885L762.741,292.885L773.939,286.406L773.939,287.609Z" style="fill:rgb(235,236,251);fill-rule:nonzero;"/>
                        </g>
                        <clipPath id="_clip24">
                            <path d="M769.209,276.819L751.768,283.296L743.521,271.126L737.385,273.607L750.372,292.885L773.939,284.135L769.209,276.819Z"/>
                        </clipPath>
                        <g clip-path="url(#_clip24)">
                            <path d="M773.939,288.811L766.897,292.885L764.819,292.885L773.939,287.609L773.939,288.811Z" style="fill:rgb(234,235,251);fill-rule:nonzero;"/>
                        </g>
                        <clipPath id="_clip25">
                            <path d="M769.209,276.819L751.768,283.296L743.521,271.126L737.385,273.607L750.372,292.885L773.939,284.135L769.209,276.819Z"/>
                        </clipPath>
                        <g clip-path="url(#_clip25)">
                            <path d="M773.939,290.014L768.976,292.885L766.897,292.885L773.939,288.811L773.939,290.014Z" style="fill:rgb(233,234,250);fill-rule:nonzero;"/>
                        </g>
                        <clipPath id="_clip26">
                            <path d="M769.209,276.819L751.768,283.296L743.521,271.126L737.385,273.607L750.372,292.885L773.939,284.135L769.209,276.819Z"/>
                        </clipPath>
                        <g clip-path="url(#_clip26)">
                            <path d="M773.939,291.215L771.054,292.885L768.976,292.885L773.939,290.014L773.939,291.215Z" style="fill:rgb(232,233,250);fill-rule:nonzero;"/>
                        </g>
                        <clipPath id="_clip27">
                            <path d="M769.209,276.819L751.768,283.296L743.521,271.126L737.385,273.607L750.372,292.885L773.939,284.135L769.209,276.819Z"/>
                        </clipPath>
                        <g clip-path="url(#_clip27)">
                            <path d="M773.939,292.418L773.132,292.885L771.054,292.885L773.939,291.215L773.939,292.418Z" style="fill:rgb(231,232,250);fill-rule:nonzero;"/>
                        </g>
                        <clipPath id="_clip28">
                            <path d="M769.209,276.819L751.768,283.296L743.521,271.126L737.385,273.607L750.372,292.885L773.939,284.135L769.209,276.819Z"/>
                        </clipPath>
                        <g clip-path="url(#_clip28)">
                            <path d="M773.132,292.885L773.939,292.418L773.939,292.885L773.132,292.885Z" style="fill:rgb(229,231,250);fill-rule:nonzero;"/>
                        </g>
                    </g>
                </g>
            </g>
        </g>
    </g>
</svg>
