<?xml version="1.0" encoding="UTF-8" standalone="no"?><!DOCTYPE svg PUBLIC "-//W3C//DTD SVG 1.1//EN" "http://www.w3.org/Graphics/SVG/1.1/DTD/svg11.dtd"><svg width="100%" height="100%" viewBox="0 0 542 648" version="1.1" xmlns="http://www.w3.org/2000/svg" xmlns:xlink="http://www.w3.org/1999/xlink" xml:space="preserve" xmlns:serif="http://www.serif.com/" style="fill-rule:evenodd;clip-rule:evenodd;stroke-linejoin:round;stroke-miterlimit:2;"><g id="add-coin"><g><g><path d="M169.898,16.032c43.228,-24.411 101.052,-21.275 163.456,15.928c13.108,7.806 25.878,16.831 38.241,26.893c102.902,84.086 176.316,241.653 169.164,371.064c-0.722,12.995 -2.188,25.336 -4.354,36.887c-10.175,54.125 -35.715,92.682 -70.955,112.535l-92.343,51.688c35.263,-19.876 60.78,-58.388 70.977,-112.558c2.189,-11.573 3.678,-23.869 4.355,-36.842c7.152,-129.479 -66.285,-287.001 -169.187,-371.109c-12.341,-10.062 -25.065,-19.109 -38.173,-26.893c-62.427,-37.158 -120.341,-40.271 -163.501,-15.928l92.32,-51.665Z" style="fill:#4d00ad;fill-rule:nonzero;"/></g><g><g><path d="M241.101,83.648c122.35,72.827 215.392,253.023 207.36,398.024c-8.122,147.686 -114.362,206.412 -236.689,133.607c-124.651,-74.181 -217.851,-251.692 -209.706,-399.378c8.032,-145 114.362,-206.434 239.035,-132.253Z" style="fill:#ff3e6f;fill-rule:nonzero;"/></g></g></g><g><g><path d="M379.108,397.068l-309.607,-178.753l0,75.716l309.607,178.752l0,-75.715Z" style="fill:#fff;fill-rule:nonzero;"/></g></g><g><g><path d="M259.128,199.86l-68.158,-39.369l-1.511,333.928l69.669,40.227l-0,-334.786Z" style="fill:#fff;fill-rule:nonzero;"/></g></g></g></svg>