<?xml version="1.0" encoding="UTF-8" standalone="no"?><!DOCTYPE svg PUBLIC "-//W3C//DTD SVG 1.1//EN" "http://www.w3.org/Graphics/SVG/1.1/DTD/svg11.dtd"><svg width="100%" height="100%" viewBox="0 0 5692 4267" version="1.1" xmlns="http://www.w3.org/2000/svg" xmlns:xlink="http://www.w3.org/1999/xlink" xml:space="preserve" xmlns:serif="http://www.serif.com/" style="fill-rule:evenodd;clip-rule:evenodd;stroke-linejoin:round;stroke-miterlimit:2;"><rect id="Artboard1" x="0" y="0" width="5691.67" height="4266.67" style="fill:none;"/><g id="Artboard11" serif:id="Artboard1"><g><g><path d="M3399.55,530.963c6.002,2.998 57.034,31.776 63.155,34.523c44.956,20.173 65.126,-13.534 148.066,3.016c2.587,-4.752 3.394,-9.349 1.778,-13.592c-20.471,-53.701 -18.951,-24.58 -23.321,-67.211c-1.365,-13.322 -1.456,-26.03 10.581,-34.75c3.834,-2.78 9.583,-3.523 13.139,-0.399c2.915,2.561 3.771,7.248 5.655,10.541c18.855,32.984 31.56,36.893 50.096,67.759c15.682,26.115 37.654,111.466 58.669,143.654c23.133,35.431 -45.898,110.157 -105.632,75.064c-36.713,-21.569 -118.464,-36.521 -125.575,-46.674c-9.063,-12.94 -74.18,-113.255 -80.555,-118.448c-3.98,-3.246 -47.04,-33.019 -49.209,-41.322c-5.235,-19.992 22.476,-17.49 33.153,-12.161Z" style="fill:#feb732;fill-rule:nonzero;"/></g><g><path d="M3611.39,567.275c2.075,-4.315 2.641,-8.488 1.163,-12.363c-20.471,-53.701 -18.951,-24.58 -23.321,-67.211c-1.365,-13.322 -1.456,-26.029 10.581,-34.75c3.834,-2.779 9.583,-3.523 13.139,-0.399c0.736,0.648 1.341,1.433 1.867,2.297c-1.989,0.591 -3.87,1.393 -5.536,2.446c-12.011,7.599 -13.312,21.81 -7.58,33.659c10.489,21.684 19.953,44.25 31.396,65.331c4.276,7.883 1.86,28.696 -21.709,10.99Z" style="fill:#ff6556;fill-rule:nonzero;"/></g><g><path d="M3563.36,576.688c-9.07,2.329 -65.299,11.19 -73.016,13.179c-0.636,0.164 -40.872,-23.748 -50.27,-26.954c-19.057,-6.502 -37.6,-16.226 -58.019,-16.859c-4.654,-0.148 -8.556,0.821 -11.765,2.537c-2.127,-2.244 -3.544,-4.137 -3.891,-5.471c-5.23,-19.988 22.479,-17.488 33.158,-12.159c6.002,2.997 57.034,31.776 63.155,34.522c41.555,18.644 61.972,-8.708 130.318,0.108c-4.895,1.368 -23.466,9.504 -29.67,11.097Z" style="fill:#ff3e6f;fill-rule:nonzero;"/></g><g><g><path d="M3675.31,524.602l-69.11,-183.259l-149.291,53.701l218.401,129.558Z" style="fill:#808080;fill-rule:nonzero;"/></g><g><path d="M3675.31,524.602l-148.9,41.137l-69.501,-170.695l218.401,129.558Z" style="fill:#424445;fill-rule:nonzero;"/></g><g><g><path d="M3494.79,406.789l-30.921,108.766l167.026,99.071l32.928,-107.568l-169.033,-100.269Z" style="fill:#0bdeae;fill-rule:nonzero;"/></g><g><g><path d="M3627.05,604.666l-1.444,-0.858l-153.992,-91.336l27.189,-95.636l1.476,0.876l155.723,92.374l-0.301,0.992l-28.651,93.588Zm-152.342,-93.424l150.8,89.441l27.363,-89.383l-152.466,-90.441l-25.697,90.383Z" style="fill:#0bdeae;fill-rule:nonzero;"/></g></g><g><g><path d="M3627.04,604.658l-1.444,-0.858l-154.002,-91.325l27.197,-95.65l157.209,93.266l-7.214,23.565l-21.746,71.002Zm-152.352,-93.413l150.811,89.43l27.371,-89.37l-152.477,-90.457l-25.705,90.397Z" style="fill:#0bdeae;fill-rule:nonzero;"/></g></g><g><g><g><path d="M3563.47,553.35c-4.978,0 -10.054,-1.652 -14.819,-4.894c-16.358,-11.129 -24.913,-38.135 -19.069,-60.203c3.125,-11.802 9.933,-20.439 18.676,-23.702c7.269,-2.721 15.297,-1.478 22.595,3.487c16.356,11.126 24.914,38.133 19.072,60.204c-3.125,11.802 -9.933,20.439 -18.676,23.701c-2.523,0.943 -5.139,1.407 -7.779,1.407Zm-7.449,-87.563c-2.331,-0 -4.63,0.406 -6.842,1.235c-7.932,2.959 -14.144,10.944 -17.047,21.907c-5.581,21.07 2.494,46.796 18,57.347c6.567,4.464 13.737,5.601 20.188,3.197c7.932,-2.962 14.144,-10.944 17.047,-21.907c5.578,-21.073 -2.497,-46.799 -18.002,-57.347c-4.314,-2.936 -8.886,-4.432 -13.344,-4.432Z" style="fill:#0bdeae;fill-rule:nonzero;"/></g></g></g><g><g><path d="M3568.07,476.855c12.811,8.713 19.465,29.823 14.875,47.163c-4.591,17.338 -18.689,24.33 -31.5,15.617c-12.807,-8.714 -19.465,-29.824 -14.872,-47.161c4.591,-17.34 18.689,-24.333 31.497,-15.619Z" style="fill:#0bdeae;fill-rule:nonzero;"/></g></g><g><g><path d="M3654.43,510.698l-6.913,22.572c-1.399,-0.317 -2.801,-0.95 -4.171,-1.877c-7.314,-4.989 -11.142,-17.078 -8.502,-27.001c0.422,-1.61 0.977,-3.062 1.665,-4.329l17.921,10.635Z" style="fill:#0bdeae;fill-rule:nonzero;"/></g></g><g><g><path d="M3472.38,511.527l6.903,-22.572c1.399,0.314 2.801,0.948 4.171,1.872c7.314,4.986 11.15,17.076 8.515,27.001c-0.422,1.61 -0.977,3.062 -1.66,4.332l-17.929,-10.633Z" style="fill:#0bdeae;fill-rule:nonzero;"/></g></g><g><g><path d="M3515.88,428.498c-0.106,1.69 -0.373,3.379 -0.792,5.016c-2.614,9.925 -10.694,13.937 -18.03,8.948c-1.216,-0.821 -2.325,-1.848 -3.328,-3.009l5.863,-20.619l16.287,9.664Z" style="fill:#0bdeae;fill-rule:nonzero;"/></g></g><g><g><path d="M3610.24,593.355c0.161,-1.687 0.477,-3.366 0.95,-4.989c2.922,-9.841 11.124,-13.594 18.301,-8.378c1.188,0.855 2.262,1.921 3.231,3.112l-6.507,20.423l-15.975,-10.168Z" style="fill:#0bdeae;fill-rule:nonzero;"/></g></g></g><g><g><path d="M3470.07,425.558l-30.924,108.765l167.027,99.068l32.927,-107.567l-169.03,-100.266Z" style="fill:#0bdeae;fill-rule:nonzero;"/></g><g><g><path d="M3602.32,623.434l-1.444,-0.858l-153.992,-91.336l27.189,-95.636l1.476,0.877l155.723,92.373l-0.301,0.993l-28.651,93.587Zm-152.342,-93.426l150.8,89.44l27.363,-89.382l-152.466,-90.441l-25.697,90.383Z" style="fill:#155777;fill-rule:nonzero;"/></g></g><g><g><path d="M3602.32,623.426l-1.444,-0.858l-154.002,-91.322l27.194,-95.65l157.212,93.266l-7.217,23.562l-21.743,71.002Zm-152.353,-93.413l150.811,89.427l27.371,-89.366l-152.479,-90.457l-25.703,90.396Z" style="fill:#155777;fill-rule:nonzero;"/></g></g><g><g><g><path d="M3538.75,572.116c-4.976,-0 -10.052,-1.652 -14.816,-4.894c-16.359,-11.124 -24.914,-38.13 -19.07,-60.201c3.126,-11.802 9.931,-20.439 18.674,-23.702c7.267,-2.719 15.297,-1.478 22.595,3.487c16.361,11.127 24.914,38.131 19.072,60.201c-3.125,11.802 -9.933,20.439 -18.676,23.702c-2.521,0.942 -5.137,1.407 -7.779,1.407Zm-7.446,-87.561c-2.331,-0 -4.628,0.406 -6.842,1.235c-7.93,2.962 -14.141,10.944 -17.045,21.907c-5.58,21.073 2.492,46.799 18,57.345c6.568,4.463 13.742,5.612 20.186,3.196c7.932,-2.959 14.143,-10.944 17.047,-21.907c5.58,-21.07 -2.495,-46.796 -18.003,-57.344c-4.313,-2.933 -8.888,-4.432 -13.343,-4.432Z" style="fill:#155777;fill-rule:nonzero;"/></g></g></g><g><g><path d="M3543.35,495.623c12.807,8.714 19.465,29.826 14.874,47.163c-4.59,17.338 -18.691,24.33 -31.499,15.619c-12.811,-8.713 -19.465,-29.823 -14.875,-47.163c4.59,-17.34 18.689,-24.33 31.5,-15.619Z" style="fill:#155777;fill-rule:nonzero;"/></g></g><g><g><path d="M3629.72,529.466l-6.916,22.57c-1.399,-0.317 -2.798,-0.948 -4.171,-1.874c-7.312,-4.989 -11.14,-17.079 -8.5,-27.002c0.422,-1.61 0.977,-3.062 1.663,-4.332l17.924,10.638Z" style="fill:#155777;fill-rule:nonzero;"/></g></g><g><g><path d="M3447.66,530.295l6.905,-22.574c1.396,0.316 2.798,0.947 4.171,1.874c7.314,4.984 11.147,17.073 8.513,26.999c-0.42,1.61 -0.974,3.062 -1.661,4.331l-17.928,-10.63Z" style="fill:#155777;fill-rule:nonzero;"/></g></g><g><g><path d="M3491.16,447.266c-0.105,1.69 -0.369,3.377 -0.792,5.013c-2.613,9.925 -10.691,13.938 -18.029,8.949c-1.214,-0.819 -2.323,-1.845 -3.326,-3.009l5.86,-20.617l16.287,9.664Z" style="fill:#155777;fill-rule:nonzero;"/></g></g><g><g><path d="M3585.52,612.121c0.158,-1.685 0.475,-3.363 0.948,-4.989c2.922,-9.839 11.123,-13.592 18.303,-8.379c1.185,0.858 2.262,1.922 3.229,3.115l-6.505,20.421l-15.975,-10.168Z" style="fill:#155777;fill-rule:nonzero;"/></g></g></g><g><g><path d="M3479.45,384.228l-30.921,108.766l167.027,99.07l32.927,-107.567l-169.033,-100.269Z" style="fill:#0bdeae;fill-rule:nonzero;"/></g><g><g><path d="M3611.71,582.105l-1.444,-0.858l-153.992,-91.336l27.189,-95.636l1.475,0.876l155.724,92.373l-0.301,0.993l-28.651,93.588Zm-152.342,-93.424l150.8,89.44l27.363,-89.382l-152.466,-90.442l-25.697,90.384Z" style="fill:#155777;fill-rule:nonzero;"/></g></g><g><g><path d="M3611.71,582.097l-1.444,-0.858l-154.003,-91.326l27.195,-95.646l157.212,93.263l-7.217,23.564l-21.743,71.003Zm-152.353,-93.414l150.811,89.43l27.371,-89.369l-152.479,-90.454l-25.703,90.393Z" style="fill:#155777;fill-rule:nonzero;"/></g></g><g><g><g><path d="M3548.14,530.789c-4.976,-0 -10.052,-1.653 -14.817,-4.894c-16.358,-11.126 -24.913,-38.133 -19.069,-60.204c3.126,-11.799 9.931,-20.436 18.671,-23.701c7.269,-2.717 15.299,-1.484 22.601,3.484c16.358,11.129 24.913,38.136 19.069,60.204c-3.125,11.802 -9.933,20.439 -18.676,23.701c-2.523,0.945 -5.137,1.41 -7.779,1.41Zm-7.444,-87.564c-2.334,0 -4.633,0.409 -6.847,1.238c-7.93,2.962 -14.141,10.944 -17.042,21.904c-5.581,21.073 2.494,46.799 18,57.348c6.57,4.466 13.745,5.606 20.186,3.196c7.932,-2.959 14.143,-10.944 17.047,-21.907c5.58,-21.07 -2.495,-46.796 -18,-57.347c-4.314,-2.935 -8.888,-4.432 -13.344,-4.432Z" style="fill:#155777;fill-rule:nonzero;"/></g></g></g><g><g><path d="M3552.73,454.293c12.807,8.714 19.465,29.824 14.874,47.164c-4.593,17.337 -18.691,24.33 -31.499,15.616c-12.811,-8.711 -19.465,-29.823 -14.875,-47.161c4.593,-17.34 18.692,-24.33 31.5,-15.619Z" style="fill:#155777;fill-rule:nonzero;"/></g></g><g><g><path d="M3639.1,488.137l-6.916,22.572c-1.399,-0.317 -2.798,-0.95 -4.17,-1.874c-7.312,-4.989 -11.14,-17.079 -8.5,-27.004c0.422,-1.611 0.977,-3.06 1.663,-4.33l17.923,10.636Z" style="fill:#155777;fill-rule:nonzero;"/></g></g><g><g><path d="M3457.04,488.968l6.903,-22.574c1.399,0.316 2.8,0.947 4.173,1.871c7.314,4.987 11.147,17.076 8.513,27.002c-0.42,1.61 -0.974,3.062 -1.66,4.331l-17.929,-10.63Z" style="fill:#155777;fill-rule:nonzero;"/></g></g><g><g><path d="M3500.54,405.937c-0.106,1.689 -0.37,3.379 -0.792,5.015c-2.613,9.925 -10.691,13.938 -18.029,8.949c-1.214,-0.819 -2.323,-1.845 -3.326,-3.01l5.86,-20.616l16.287,9.662Z" style="fill:#155777;fill-rule:nonzero;"/></g></g><g><g><path d="M3594.91,570.793c0.158,-1.686 0.475,-3.365 0.947,-4.989c2.922,-9.838 11.124,-13.594 18.304,-8.378c1.188,0.855 2.262,1.922 3.231,3.115l-6.507,20.421l-15.975,-10.169Z" style="fill:#155777;fill-rule:nonzero;"/></g></g></g><g><g><path d="M3456.88,395.04l-56.234,189.953l215.856,128.031l58.826,-188.403l-148.954,41.151l-69.494,-170.732Z" style="fill:#eae9ec;fill-rule:nonzero;"/></g></g><g><path d="M3526.41,565.739l90.119,147.268l-215.852,-128.04l125.733,-19.228Z" style="fill:#808080;fill-rule:nonzero;"/></g></g><g><path d="M3457.99,624.563c-8.05,-8.913 -30.524,-28.692 -30.524,-28.692c-2.003,-7.236 -8.148,-18.4 -13.097,-26.288c-8.633,-13.753 -35.538,-22.157 -38.263,-6.487c-1.647,9.461 23.982,62.121 27.96,66.273c9.635,10.05 32.632,35.784 39.157,38.453c20.298,8.308 29.804,20.084 36.338,12.989c10.203,-11.08 -11.476,-45.07 -21.571,-56.248Z" style="fill:#feb732;fill-rule:nonzero;"/></g><g><path d="M3448.23,635.052c1.773,-1.769 -6.968,-22.77 -5.699,-24.747c-7.836,-7.423 -15.063,-14.434 -15.063,-14.434c-1.773,-6.405 -6.792,-15.883 -11.356,-23.45c3.616,10.552 5.737,15.888 8.704,26.771c0.176,0.373 19.528,31.685 23.414,35.86Z" style="fill:#ff3e6f;fill-rule:nonzero;"/></g><g><path d="M3730.84,682.929c-153.711,64.678 -252.443,-14.412 -252.443,-14.412c5.176,14.314 9.858,23.09 17.762,34.372c7.112,10.154 88.862,25.106 125.575,46.674c55.198,32.431 116.677,-31.304 109.106,-66.634Z" style="fill:#ff3e6f;fill-rule:nonzero;"/></g><g><path d="M3496.98,654.1c-7.219,-9.595 -23.844,-34.445 -23.844,-34.445c-0.441,-7.494 -2.91,-23.051 -5.997,-29.895c-5.495,-12.178 -28.195,-30.552 -37.37,-12.902c-3.987,8.741 10.451,65.766 13.475,70.659c7.317,11.844 27.798,43.252 34.78,44.216c37.703,5.197 19.962,-36.291 18.956,-37.633Z" style="fill:#feb732;fill-rule:nonzero;"/></g><g><path d="M3481.11,650.67c2.84,-3.481 5.988,-6.771 9.231,-9.975c-7.747,-11.068 -17.206,-25.207 -17.206,-25.207c-0.441,-7.493 -2.91,-23.051 -5.997,-29.895c-0.422,-0.929 -0.971,-1.902 -1.579,-2.885c0.641,3.094 4.075,24.17 2.179,37.037c3.605,9.891 7.815,12.511 13.372,30.925Z" style="fill:#ff3e6f;fill-rule:nonzero;"/></g><g><g><path d="M3842,679.329l-88.193,-50.202c-12.623,-7.022 -29.928,-5.859 -49.018,5.162c-38.643,22.31 -69.969,76.57 -69.969,121.192c0,22.577 8.019,38.362 20.952,45.558l87.971,50.068l98.257,-171.778Z" style="fill:#155777;fill-rule:nonzero;"/></g></g><g><g><path d="M3791.8,684.702c-38.639,22.308 -69.845,76.361 -69.721,120.758c0.124,44.397 31.537,62.3 70.176,39.992c38.636,-22.309 69.843,-76.363 69.718,-120.76c-0.124,-44.397 -31.537,-62.299 -70.173,-39.99Z" style="fill:#022677;fill-rule:nonzero;"/></g></g></g><g><g><path d="M771.309,589.349c-54.773,-45.64 -153.409,-145.579 -148.162,-144.322c46.161,17.628 125.805,37.091 132.161,8.751c6.542,-29.173 -57.119,-35.388 -78.314,-44.428c-34.256,-14.609 -66.47,-55.132 -133.946,-55.132c-13.259,0 -27.86,2.759 -43.283,2.759c-43.243,-0 -115.994,-98.061 -128.477,-99.178c-47.474,-3.788 -96.604,84.38 -88.829,121.818c5.491,26.445 81.694,17.253 94.491,74.245c13.697,61.001 53.802,104.811 113.871,142.052c44.949,27.867 87.523,72.437 107.724,35.154c20.258,19.774 82.938,73.954 104.417,29.158c39.329,30.306 74.229,6.35 35.264,-35.456c39.969,24.262 62.46,-10.946 33.083,-35.421Z" style="fill:#feb732;fill-rule:nonzero;"/></g><g><path d="M538.181,438.622c-37.563,-0 -63.738,15.266 -63.738,28.973c0,13.702 26.175,28.968 63.738,28.968c37.562,0 63.742,-15.266 63.742,-28.968c-0,-13.707 -26.18,-28.973 -63.742,-28.973Z" style="fill:#c52887;fill-rule:nonzero;"/></g><g><path d="M685.064,665.553c-71.848,-25.204 -117.76,-113.022 -125.943,-102.229c-3.171,4.182 28.406,43.058 32.836,46.039c15.56,10.468 6.326,31.366 -9.293,20.858c-13.957,-9.389 -25.241,-21.508 -38.409,-31.781c-11.047,-8.619 -167.577,-101.112 -143.801,-186.681c-67.493,-16.934 -105.848,-73.248 -109.908,-78.948c-7.233,17.678 -10.571,34.835 -8.085,46.804c5.491,26.445 81.695,17.253 94.491,74.245c13.698,61 53.803,104.811 113.872,142.052c44.948,27.866 87.523,72.437 107.724,35.154c19.491,19.023 78.246,69.884 101.797,33.811c-4.184,2.785 -9.297,2.773 -15.281,0.676Z" style="fill:#ff3e6f;fill-rule:nonzero;"/></g><g><path d="M754.999,654.192c-3.085,11.832 -14.378,13.038 -26.476,4.153c-47.34,-34.761 -148.366,-122.91 -147.308,-117.809c2.61,12.574 91.261,97.289 121.743,119.69c28.187,20.713 54.829,15.009 52.041,-6.034Z" style="fill:#ff3e6f;fill-rule:nonzero;"/></g><g><path d="M766.161,620.448c-16.559,-16.139 -133.984,-100.367 -135.882,-94.778c-5.171,15.246 108.7,96.441 113.389,102.065c17.834,8.8 31.511,5.39 37.581,-3.112c-4.919,1.292 -10.437,0.361 -15.088,-4.175Z" style="fill:#ff3e6f;fill-rule:nonzero;"/></g><g><path d="M695.706,450.267c-22.371,-8.993 -44.364,-18.823 -65.448,-30.545c-6.478,-3.6 -30.617,-11.821 -30.617,5.545c-0,9.435 22.793,19.591 23.504,19.76c45.914,17.532 124.93,36.866 132.022,9.18c-18.841,9.288 -40.77,3.575 -59.461,-3.94Z" style="fill:#ff3e6f;fill-rule:nonzero;"/></g><g id="heart"><g id="XMLID_532_"><path d="M585.589,245.906c-6.283,-16.17 -24.36,-42.514 -42.839,-53.667c-12.145,-7.332 -23.18,-8.41 -31.547,-4.367l-0.047,-0.056l-57.449,33.019l91.888,230.701c0.002,-0 41.188,-202.56 39.994,-205.63Z" style="fill:#88119b;fill-rule:nonzero;"/></g><g id="XMLID_527_"><path d="M630.167,245.966c-12.569,-7.587 -30.125,-8.338 -40.248,-2.577l-48.546,28.22l-22.406,82.464l25.124,93.665c0.629,2.35 -2.413,6.063 -0.37,4.888c-0,0 56.145,-31.555 56.708,-31.982l59.684,-45.188c10.963,-8.387 17.017,-24.09 17.017,-44.143c0.002,-31.479 -21.025,-69.691 -46.963,-85.347Z" style="fill:#c52887;fill-rule:nonzero;"/></g><g id="XMLID_505_"><g id="XMLID_523_"><path d="M605.282,406.348c10.962,-8.387 17.016,-24.092 17.016,-44.146c-0,-31.48 -21.027,-69.69 -46.965,-85.348c-18.755,-11.319 -37.856,-7.116 -43.971,2.594c0,-0 -11.267,-35.682 -44.012,-55.698c-25.059,-15.318 -46.923,-2.802 -46.923,28.676l0,0.002c0,20.051 6.087,43.084 17.108,64.742l59.652,117.213c7.554,14.845 20.855,22.875 28.412,17.153l59.683,-45.188Z" style="fill:#ff3e6f;fill-rule:nonzero;"/></g></g><g id="XMLID_506_"><g id="XMLID_511_"><path d="M579.003,390.779c7.065,-5.406 10.965,-15.527 10.965,-28.45c0,-20.288 -13.552,-44.913 -30.268,-55.003c-12.086,-7.295 -24.397,-4.588 -28.338,1.67c0,-0 -7.261,-22.995 -28.363,-35.895c-16.151,-9.872 -30.242,-1.808 -30.242,18.48c-0,12.923 3.921,27.767 11.026,41.723l38.444,75.542c4.869,9.567 13.439,14.744 18.311,11.057l38.465,-29.124Z" style="fill:#fff;fill-rule:nonzero;"/></g></g></g></g><g><path d="M1805.22,1017.17c4.756,-5.681 -1.827,-12.269 -7.511,-7.512l-20.545,17.19c-7.274,6.09 4.777,18.141 10.862,10.867l17.194,-20.545Zm94.748,-0c-4.756,-5.681 1.83,-12.269 7.511,-7.512l20.547,17.19c7.274,6.09 -4.778,18.141 -10.864,10.867l-17.194,-20.545Zm-120.158,-49.772c7.379,-0.653 7.381,-9.969 0,-10.624l-26.684,-2.372c-9.45,-0.84 -9.448,16.206 0,15.366l26.684,-2.37Zm145.57,0c-7.381,-0.653 -7.383,-9.969 0,-10.624l26.682,-2.372c9.451,-0.84 9.448,16.206 0,15.366l-26.682,-2.37Zm-128.345,-53.161c5.681,4.755 12.271,-1.83 7.511,-7.511l-17.192,-20.548c-6.088,-7.274 -18.136,4.779 -10.862,10.867l20.543,17.192Zm111.121,-0c-5.684,4.755 -12.272,-1.83 -7.514,-7.511l17.192,-20.548c6.088,-7.274 18.138,4.779 10.864,10.867l-20.542,17.192Zm-49.774,-25.413c-0.653,7.381 -9.971,7.384 -10.622,0l-2.375,-26.684c-0.837,-9.448 16.206,-9.446 15.369,0l-2.372,26.684Zm-15.457,201.987c-3.111,0 -5.637,-2.523 -5.637,-5.634c0,-1.07 0.298,-2.072 0.819,-2.926l-4.505,0c-3.109,0 -5.634,-2.525 -5.634,-5.634c-0,-1.709 0.763,-3.246 1.972,-4.279c-1.209,-1.037 -1.972,-2.567 -1.972,-4.279c-0,-3.111 2.525,-5.634 5.634,-5.634l37.984,-0c3.111,-0 5.634,2.523 5.634,5.634c0,1.712 -0.762,3.242 -1.972,4.279c1.21,1.033 1.972,2.57 1.972,4.279c0,3.109 -2.523,5.634 -5.634,5.634l-4.502,0c0.518,0.854 0.816,1.856 0.816,2.926c0,3.111 -2.525,5.634 -5.634,5.634l-19.341,0Zm28.661,-34.53l-37.984,0c-3.109,0 -5.634,-2.525 -5.634,-5.634c-0,-21.432 -7.883,-33.582 -15.504,-45.325c-8.025,-12.365 -15.797,-24.341 -15.797,-44.879c0,-15.438 6.263,-29.424 16.383,-39.542c10.12,-10.12 24.106,-16.382 39.544,-16.382c15.441,-0 29.424,6.262 39.544,16.382c10.12,10.118 16.383,24.104 16.383,39.542c-0,20.538 -7.772,32.514 -15.795,44.879c-7.62,11.743 -15.506,23.893 -15.506,45.325c0,3.109 -2.523,5.634 -5.634,5.634m-29.652,-14.343l21.32,-0c1.558,-17.794 7.697,-29.345 17.473,-44.407c7.988,-12.31 13.45,-21.721 13.45,-37.088c0,-11.067 -4.353,-21.578 -12.178,-29.403c-7.827,-7.825 -18.336,-12.178 -29.405,-12.178c-11.069,0 -21.578,4.353 -29.403,12.178c-7.827,7.825 -12.18,18.336 -12.18,29.403c-0,15.367 5.462,24.778 13.45,37.088c9.778,15.062 15.915,26.613 17.473,44.407" style="fill:#333;"/><path d="M1784.75,1450.36c-0.193,-3.867 -1.017,-3.877 -3.802,-6.588c-29.922,-25.647 -59.443,-50.015 -85.769,-77.304c-8.651,-8.97 -9.29,-21.943 -1.709,-31.842c24.484,-31.996 52.861,-63.41 84.892,-95.166c4.051,-4.012 5.088,-3.9 13.327,-6.177c14.462,-3.995 18.668,-6.153 33.253,-10.276c4.203,16.776 11.081,52.643 18.855,68.159l2.046,-24.785l1.024,-20.503l6.188,-4.1l6.188,4.1l3.278,45.29c7.835,-15.743 15.12,-50.467 18.383,-67.649c18.722,5.239 26.614,7.855 44.827,12.906c3.221,2.47 5.895,7.485 7.416,11.571c8.158,23.329 17.55,46.867 29.891,70.896c12.076,-19.12 21.252,-41.567 30.921,-63.996c10.763,-24.961 45.418,-8.804 34.889,16.655c-15.292,36.962 -28.812,74.067 -48.006,108.439c-9.283,16.625 -26.908,15.746 -36.272,-1.33c-7.181,-13.095 -13.988,-26.352 -20.467,-39.744l1.379,111.444l-140.732,-0Zm-2.314,-58.134c-0.151,-17.264 -0.219,-35.809 -0.437,-53.663l-0,-37.017c-14.16,15.018 -27.84,30.642 -40.77,47.202c12.804,14.69 26.775,29.461 41.207,43.478m61.88,-395.16l16.687,-0l-0,16.687l-16.687,0l-0,-16.687Zm3.595,-11.874l-4.323,-27.914l-0,-24.58l18.024,0l0,24.58l-4.265,27.914l-9.436,0Zm5.144,130.245c20.422,0 36.974,15.985 36.974,35.714c-0,19.078 -13.734,60.25 -36.974,60.25c-23.236,-0 -36.975,-41.172 -36.975,-60.25c0,-19.729 16.555,-35.714 36.975,-35.714" style="fill:#333;"/></g><g><path d="M4467.56,855.109c20.927,-1.142 38.8,14.327 39.893,34.53c1.06,19.541 -4.981,62.217 -28.784,63.51c-23.808,1.293 -45.951,-39.83 -47.009,-59.368c-1.095,-20.21 14.969,-37.528 35.9,-38.672" style="fill:#333;"/><path d="M4674.57,1117.01c23.499,-12.978 43.579,-23.848 67.863,-40.616c17.22,-27.122 31.412,-58.95 42.532,-89.578c-0.325,-1.344 -0.386,-2.57 0.654,-3.665c6.504,-6.823 16.722,-11.955 28.644,-16.762c-6.088,12.688 -10.899,38.119 -11.518,57.406c3.414,-10.809 12.895,-36.844 18.374,-46.404l6.939,0.163c-5.698,16.117 -10.114,38.213 -10.393,55.998c10.144,-27.193 22.136,-52.452 34.124,-68.063c8.522,2.196 32.972,8.739 38.251,12.693c3.453,2.583 3.748,4.774 4.876,7.369l0.298,0.139c13.806,17.822 56.613,75.54 59.196,95.683c2.114,16.426 -29.784,92.914 -37.558,111.864c-6.4,15.602 -21.413,16.474 -29.677,8.963c0.125,3.276 0.286,6.578 0.477,9.906l-7.832,-0.216l0.023,0.502c-5.684,68.242 -0.921,159.15 -1.7,230.225c-0.051,4.583 -2.849,7.741 -7.032,7.741l-27.68,-0.014c-3.439,-0.005 -6.476,-2.395 -6.811,-5.814c-4.437,-45.094 -8.558,-102.486 -11.606,-157.18c-0.058,-1.114 -1.126,0.439 -1.223,1.118c-7.451,51.485 -12.99,103.945 -17.255,156.062c-0.277,3.407 -2.686,5.809 -6.125,5.814l-27.682,0.014c-4.184,0.002 -7.718,-3.174 -7.944,-7.741l13.406,-230.158c-2.197,-0.109 -7.557,-0.225 -9.848,-0.353c0.567,-16.171 1.314,-61.019 3.97,-107.667c-1.403,1.513 -3.119,3.053 -5.314,4.662c-25.659,18.778 -40.693,25.887 -68.354,37.353c-0.097,-14.75 -12.397,-23.159 -24.075,-29.444m212.124,54.392c0.193,-36.063 2.585,-70.535 1.739,-108.289l0.821,-8.262l6.192,6.795c5.695,7.509 11.132,15.42 16.225,24.31c-8.153,33.04 -13.364,55.617 -24.977,85.446m-45.974,-316.294c-20.929,-1.142 -38.793,14.325 -39.895,34.53c-1.061,19.546 4.983,62.215 28.786,63.51c23.813,1.293 45.951,-39.825 47.013,-59.368c1.096,-20.213 -14.973,-37.528 -35.904,-38.672" style="fill:#333;"/><path d="M4436.8,1212.11c1.991,-34.791 3.905,-65.296 2.544,-100.112c-0.618,-15.832 -1.804,-32.312 -3.325,-48.879c-5.674,9.321 -10.95,19.153 -15.601,30.357c-0.605,38.839 -1.591,63.319 3.351,100.788c3.595,27.254 -32.196,32.043 -35.798,4.756c-2.684,-20.369 -13.843,-102.784 -7.711,-117.883c13.143,-32.356 29.996,-64.373 48.655,-94.264c0.981,-3.476 2.867,-6.72 5.497,-8.688c5.279,-3.953 18.394,-9.336 26.915,-11.534c-1.619,3.695 19.526,12.778 34.93,-0.053c15.101,2.779 34.461,5.944 41.279,18.912c15.241,28.992 30.13,64.438 47.497,92.234c17.231,11.06 85.255,43.388 99.04,56.757c14.555,14.115 -2.282,31.802 -17.901,24.077c-11.221,5.216 -27.141,0.031 -28.54,-8.946c-27.678,-10.976 -51.327,-21.296 -76.049,-38.371c-8.411,-5.463 -12.943,-11.609 -16.794,-18.502c-5.265,-9.569 -11.906,-20.254 -11.862,-18.671c0.293,10.849 12.064,38.756 13.213,65.24c4.634,106.691 5.26,190.925 -1.909,303.292c-0.419,4.57 -4.102,7.744 -8.279,7.742l-27.684,-0.014c-3.435,-0.005 -5.942,-2.391 -5.87,-5.814c1.561,-73.351 2.219,-118.55 -2.637,-188.511c-0.018,-0.283 -2.555,-0.576 -2.604,0.075c-5.137,66.974 -4.946,123.034 -13.271,188.436c-0.433,3.412 -3.542,5.814 -6.977,5.814l-27.682,0.014c-4.183,-0 -7.039,-3.156 -6.808,-7.742c4.341,-87.326 6.681,-140.595 4.978,-230.224l-10.597,-0.286Z" style="fill:#333;"/></g><g><path d="M2989.55,992.141c15.582,0 28.214,12.199 28.214,27.252c0,14.555 -10.485,45.974 -28.214,45.974c-17.732,-0 -28.219,-31.419 -28.219,-45.974c-0,-15.053 12.638,-27.252 28.219,-27.252m-45.104,254.558c0.044,17.469 -23.271,17.476 -23.792,0.263l-3.476,-74.856l7.236,-71.839c0.424,-4.191 0.963,-9.53 4.284,-12.139c3.493,-2.742 10.478,-4.035 14.836,-5.244c10.844,-2.995 15.964,-5.716 26.901,-8.806c3.155,12.578 7.797,35.332 13.629,46.969l0.844,-28.568l4.642,-3.074l4.639,3.074l0.844,28.568c5.832,-11.637 10.474,-34.391 13.629,-46.969c10.937,3.09 16.057,5.811 26.901,8.806c4.342,1.205 11.622,2.544 15.018,5.393c3.158,2.66 3.688,7.878 4.102,11.99l7.236,71.839l-3.476,74.856c-0.521,17.213 -23.836,17.206 -23.789,-0.263c-3.126,61.487 -5.732,139.661 -7.172,199.162c-0.056,2.492 -2.114,4.499 -4.607,4.499l-20.08,0c-2.486,0 -4.546,-2.002 -4.609,-4.483l-4.63,-176.703c-0.074,-2.816 -2.039,-4.227 -4.006,-4.227c-1.97,-0 -3.933,1.411 -4.007,4.227l-4.632,176.703c-0.063,2.481 -2.123,4.483 -4.609,4.483l-20.08,0c-2.493,0 -4.551,-2.007 -4.607,-4.499c-1.44,-59.501 -4.046,-137.675 -7.169,-199.162m495.502,-254.558c15.583,0 28.213,12.199 28.213,27.252c-0,14.555 -10.483,45.974 -28.213,45.974c-17.731,-0 -28.216,-31.419 -28.216,-45.974c-0,-15.053 12.634,-27.252 28.216,-27.252m-45.106,254.558c0.047,17.469 -23.271,17.476 -23.789,0.263l-3.477,-74.856l7.237,-71.839c0.421,-4.191 0.963,-9.53 4.284,-12.139c3.492,-2.742 10.476,-4.035 14.833,-5.244c10.846,-2.995 15.967,-5.716 26.903,-8.806c3.151,12.578 7.795,35.332 13.627,46.969l0.845,-28.568l4.643,-3.074l4.637,3.074l0.847,28.568c5.832,-11.637 10.474,-34.391 13.627,-46.969c10.936,3.09 16.057,5.811 26.903,8.806c4.341,1.205 11.622,2.544 15.017,5.393c3.156,2.66 3.686,7.878 4.1,11.99l7.239,71.839l-3.476,74.856c-0.521,17.213 -23.836,17.206 -23.79,-0.263c-3.127,61.487 -5.734,139.661 -7.171,199.162c-0.058,2.492 -2.114,4.499 -4.607,4.499l-20.08,0c-2.486,0 -4.548,-2.002 -4.611,-4.483l-4.633,-176.703c-0.072,-2.816 -2.037,-4.227 -4.002,-4.227c-1.969,-0 -3.937,1.411 -4.009,4.227l-4.63,176.703c-0.065,2.481 -2.123,4.483 -4.611,4.483l-20.078,0c-2.495,0 -4.551,-2.007 -4.609,-4.499c-1.437,-59.501 -4.044,-137.675 -7.169,-199.162" style="fill:#333;"/><path d="M3211.08,1339.89l3.473,-0c1.17,-0 2.127,0.957 2.127,2.127l-0,3.473c-0,1.17 -0.957,2.127 -2.127,2.127l-3.473,-0c-1.172,-0 -2.127,-0.957 -2.127,-2.127l-0,-3.473c-0,-1.17 0.955,-2.127 2.127,-2.127m12.051,-0l3.473,-0c1.171,-0 2.127,0.957 2.127,2.127l-0,3.473c-0,1.17 -0.956,2.127 -2.127,2.127l-3.473,-0c-1.169,-0 -2.127,-0.957 -2.127,-2.127l-0,-3.473c-0,-1.17 0.958,-2.127 2.127,-2.127m-24.103,12.052l3.474,-0c1.17,-0 2.127,0.955 2.127,2.126l0,3.474c0,1.169 -0.957,2.126 -2.127,2.126l-3.474,-0c-1.17,-0 -2.126,-0.957 -2.126,-2.126l0,-3.474c0,-1.171 0.956,-2.126 2.126,-2.126m12.052,-0l3.473,-0c1.17,-0 2.127,0.955 2.127,2.126l-0,3.474c-0,1.169 -0.957,2.126 -2.127,2.126l-3.473,-0c-1.172,-0 -2.127,-0.957 -2.127,-2.126l-0,-3.474c-0,-1.171 0.955,-2.126 2.127,-2.126m12.051,-0l3.473,-0c1.171,-0 2.127,0.955 2.127,2.126l-0,3.474c-0,1.169 -0.956,2.126 -2.127,2.126l-3.473,-0c-1.169,-0 -2.127,-0.957 -2.127,-2.126l-0,-3.474c-0,-1.171 0.958,-2.126 2.127,-2.126m-24.103,12.051l3.474,-0c1.17,-0 2.127,0.956 2.127,2.125l0,3.474c0,1.169 -0.957,2.126 -2.127,2.126l-3.474,0c-1.17,0 -2.126,-0.957 -2.126,-2.126l0,-3.474c0,-1.169 0.956,-2.125 2.126,-2.125m12.052,-0l3.473,-0c1.17,-0 2.127,0.956 2.127,2.125l-0,3.474c-0,1.169 -0.957,2.126 -2.127,2.126l-3.473,0c-1.172,0 -2.127,-0.957 -2.127,-2.126l-0,-3.474c-0,-1.169 0.955,-2.125 2.127,-2.125m12.051,-0l3.473,-0c1.171,-0 2.127,0.956 2.127,2.125l-0,3.474c-0,1.169 -0.956,2.126 -2.127,2.126l-3.473,0c-1.169,0 -2.127,-0.957 -2.127,-2.126l-0,-3.474c-0,-1.169 0.958,-2.125 2.127,-2.125m-24.103,-24.103l3.474,-0c1.17,-0 2.127,0.957 2.127,2.127l0,3.473c0,1.17 -0.957,2.127 -2.127,2.127l-3.474,-0c-1.17,-0 -2.126,-0.957 -2.126,-2.127l0,-3.473c0,-1.17 0.956,-2.127 2.126,-2.127m-34.745,-3.765l27.108,-3.402c2.478,-0.31 4.535,-2.037 4.535,-4.533l-0,-4.953c-0,-1.871 1.53,-3.401 3.401,-3.401l3.697,-0c1.874,-0 3.401,1.53 3.401,3.401l0,3.669c0,1.87 1.529,3.401 3.402,3.401l5.98,-0c1.873,-0 3.401,-1.528 3.401,-3.401l-0,-3.669c-0,-1.872 1.529,-3.401 3.402,-3.401l3.696,-0c1.871,-0 3.401,1.533 3.401,3.401l0,4.953c0,2.49 2.058,4.224 4.535,4.533l27.109,3.402c2.843,0.356 5.256,2.117 5.621,4.938l4.08,31.422c0.216,1.659 -0.247,3.203 -1.363,4.472c-1.114,1.268 -2.582,1.927 -4.258,1.927l-105.228,-0c-1.674,-0 -3.145,-0.659 -4.259,-1.927c-1.114,-1.269 -1.58,-2.795 -1.363,-4.472l4.08,-31.422c0.369,-2.842 2.779,-4.582 5.622,-4.938m0.492,-34.823c25.468,-17.252 70.613,-17.252 96.082,-0c4.058,2.751 10.488,9.059 8.506,16.615c-1.246,4.759 -2.064,12.21 -8.876,10.971l-19.547,-3.561c-6.812,-1.239 -5.259,-8.316 -4.931,-13.225c0.391,-5.823 2.842,-5.414 -2.716,-6.348c-11.441,-1.925 -29.511,-1.925 -40.951,-0c-5.56,0.934 -3.108,0.525 -2.719,6.348c0.327,4.909 1.881,11.987 -4.93,13.225l-19.547,3.561c-6.811,1.238 -7.632,-6.212 -8.878,-10.971c-1.98,-7.556 4.448,-13.864 8.507,-16.615" style="fill:#333;"/><path d="M3216.25,855.049c17.776,-0 32.187,13.915 32.187,31.086c-0,16.603 -11.96,52.441 -32.187,52.441c-20.224,-0 -32.184,-35.838 -32.184,-52.441c0,-17.171 14.409,-31.086 32.184,-31.086m-55.075,221.72c-0.112,-13.464 -0.168,-23.903 -0.337,-37.823l-0,-28.87c-11.046,11.713 -21.708,23.898 -31.796,36.811c9.985,11.455 20.882,18.948 32.133,29.882m1.721,57.945c-0.184,-7.734 -0.358,-13.343 -0.517,-15.727c-0.793,-0.595 -1.583,-1.265 -2.362,-2.021c-23.336,-20.001 -46.358,-34.981 -66.887,-56.259c-6.746,-6.992 -7.243,-17.113 -1.332,-24.831c19.092,-24.954 41.223,-49.452 66.205,-74.216c3.158,-3.13 3.967,-3.041 10.392,-4.818c11.276,-3.116 13.623,-6.1 24.999,-9.316c3.276,13.083 8.778,46.651 14.841,58.75l3.19,-39.614l4.825,-3.193l4.826,3.193l3.285,38.477c6.112,-12.276 11.842,-44.425 14.386,-57.822c14.601,4.086 19.977,8.034 34.179,11.976c2.514,1.925 4.599,5.837 5.785,9.023c6.36,18.191 13.686,36.548 23.308,55.289c9.421,-14.911 16.576,-32.419 24.115,-49.908c8.392,-19.467 35.421,-6.867 27.205,12.99c-11.925,28.826 -22.468,57.761 -37.435,84.564c-7.239,12.966 -20.984,12.278 -28.289,-1.037c-5.599,-10.211 -10.903,-20.55 -15.959,-30.994c-0.4,33.07 -0.716,61.841 0.028,94.897l-108.788,0.597Z" style="fill:#333;"/><path d="M3314.5,1187.87l-8.315,53.75l-16.664,-16.662l-32.594,32.589c-3.341,3.341 -8.762,3.341 -12.104,-0c-3.341,-3.34 -3.341,-8.763 0,-12.104l32.594,-32.589l-16.667,-16.666l53.75,-8.318Zm-198.505,-0l53.752,8.318l-16.666,16.666l32.593,32.589c3.339,3.341 3.339,8.764 -0,12.104c-3.344,3.341 -8.765,3.341 -12.104,-0l-32.593,-32.589l-16.664,16.662l-8.318,-53.75Zm90.694,-35.07c-0,-4.725 3.832,-8.56 8.557,-8.56c4.73,0 8.56,3.835 8.56,8.56l0,54.659l23.566,0l-32.126,43.893l-32.123,-43.893l23.566,0l-0,-54.659Z" style="fill:#333;"/></g><g><path d="M3874.89,984.989l-0,-0.098l0.03,0c0.058,-4.592 3.723,-8.113 8.185,-8.025c71.121,1.416 127.148,0.405 198.148,-2.262c10.088,-0.377 18.508,-9.139 18.508,-19.308l0,-59.322c0,-16.66 -16.683,-18.064 -27.191,-18.818c-111.209,-7.976 -151.225,-8.294 -262.734,0.633c-10.009,0.802 -18.82,7.792 -18.82,18.185l-0,59.322c-0,22.114 25.122,19.433 37.249,19.863c14.873,0.531 11.069,-1.069 22.61,10.56l23.873,24.108l0.142,-24.838Zm16.015,8.088l-0.191,36.263c-0.028,7.164 -8.739,10.659 -13.732,5.611l-0.023,0.023l-43.055,-43.541c-4.809,-2.105 -33.031,4.846 -49.032,-11.737c-13.304,-13.792 -9.974,-32.258 -9.974,-54.059c0,-30.04 -5.757,-60.722 38.607,-64.296c110.233,-8.883 159.146,-8.009 268.632,0.412c18.357,1.414 33.742,15.357 33.742,34.221l-0,59.322c-0,18.717 -15.244,34.655 -34.059,35.362c-67.109,2.519 -123.513,3.684 -190.915,2.419" style="fill:#333;fill-rule:nonzero;"/><path d="M3945.39,1027.3c17.147,-0 31.044,13.422 31.044,29.989c0,16.013 -11.536,50.582 -31.044,50.582c-19.513,0 -31.049,-34.569 -31.049,-50.582c-0,-16.567 13.901,-29.989 31.049,-29.989m262.22,299.204c7.416,0.844 9.981,0.844 17.052,0.383l7.823,-98.854l-7.962,-79.048c-0.465,-4.609 -1.061,-10.488 -4.711,-13.357c-4.256,-3.342 -20.664,-10.223 -27.589,-12.181c-8.302,13.034 -16.616,27.233 -23.276,45.665c0.507,-12.669 2.426,-25.222 7.351,-37.521l-6.9,0.753c-8.818,24.185 -19.424,49.96 -21.675,75.556c-2.865,32.535 -5.732,47.02 -5.388,81.046l-54.889,14.883c-14.546,3.943 -25.882,14.229 -26.717,29.26l-6.172,111.098c-0.202,3.641 2.353,6.172 5.686,6.172l22.052,-0.014c2.739,-0.003 5.134,-1.903 5.365,-4.633c2.453,-28.858 8.162,-52.959 10.822,-88.757c0.402,-5.42 4.774,-9.587 10.193,-9.997c29.7,-2.244 54.966,-5.058 84.687,-6.936c6.439,-0.405 13.457,-7.114 14.248,-13.518m-9.348,-294.156c-17.09,-1.327 -31.989,10.976 -33.275,27.487c-1.244,15.964 2.893,50.964 22.343,52.478c19.454,1.514 38.323,-31.693 39.562,-47.662c1.286,-16.513 -11.534,-30.972 -28.63,-32.303m-515.095,294.156c-7.416,0.844 -9.983,0.844 -17.055,0.383l-7.822,-98.854l7.962,-79.048c0.465,-4.609 1.06,-10.488 4.711,-13.357c4.256,-3.342 20.664,-10.223 27.592,-12.181c8.299,13.034 16.612,27.233 23.275,45.665c-0.507,-12.669 -2.428,-25.222 -7.351,-37.521l6.897,0.753c8.818,24.185 19.425,49.96 21.676,75.556c2.865,32.535 5.734,47.02 5.39,81.046l54.887,14.883c14.546,3.943 25.882,14.229 26.717,29.26l6.172,111.098c0.202,3.641 -2.354,6.172 -5.686,6.172l-22.052,-0.014c-2.739,-0.003 -5.135,-1.903 -5.362,-4.633c-2.456,-28.858 -8.165,-52.959 -10.825,-88.757c-0.403,-5.42 -4.774,-9.587 -10.193,-9.997c-29.7,-2.244 -54.966,-5.058 -84.687,-6.936c-6.439,-0.405 -13.458,-7.114 -14.246,-13.518m9.346,-294.156c17.092,-1.327 31.989,10.976 33.275,27.487c1.244,15.964 -2.893,50.964 -22.341,52.478c-19.457,1.514 -38.323,-31.693 -39.565,-47.662c-1.283,-16.513 11.534,-30.972 28.631,-32.303m414.35,218.865c6.674,0 12.085,5.414 12.085,12.088c0,6.674 -5.411,12.09 -12.085,12.09l-322.949,-0c-6.676,-0 -12.087,-5.416 -12.087,-12.09c-0,-6.674 5.411,-12.088 12.087,-12.088l83.041,0l-1.2,-25.889c2.654,-26.349 5.309,-52.701 7.963,-79.048c0.465,-4.609 1.06,-10.488 4.713,-13.357c3.842,-3.019 11.53,-4.437 16.325,-5.77c11.932,-3.295 15.473,-6.29 27.507,-9.69c3.47,13.841 8.346,42.365 14.762,55.169c0.312,-6.216 2.946,-28.708 3.258,-34.921c1.702,-1.13 3.402,-2.254 5.104,-3.386c1.703,1.132 3.403,2.256 5.105,3.386c0.311,6.213 2.946,28.705 3.258,34.921c6.416,-12.804 11.292,-41.328 14.764,-55.169c12.032,3.4 15.573,6.395 27.507,9.69c4.777,1.323 12.788,2.8 16.52,5.932c3.479,2.928 4.06,8.67 4.516,13.195c2.654,26.347 5.309,52.699 7.962,79.048l-1.199,25.889l83.043,0Zm-135.152,49.699c13.253,0 22.769,11.569 21.745,24.699c-3.36,43.078 -4.997,64.528 -6.327,119.799c-0.063,2.737 -2.33,4.949 -5.07,4.949l-22.093,-0c-2.738,-0 -5.005,-2.203 -5.075,-4.933c-1.669,-37.111 -3.337,-83.527 -5.006,-120.638c-0.577,-12.841 8.948,-23.876 21.826,-23.876m-52.647,0c12.878,0 22.403,11.037 21.826,23.876c-1.67,37.111 -3.337,83.527 -5.007,120.638c-0.069,2.73 -2.337,4.933 -5.074,4.933l-22.094,-0c-2.739,-0 -5.006,-2.212 -5.069,-4.949c-1.33,-55.271 -2.967,-76.721 -6.328,-119.799c-1.023,-13.13 8.493,-24.699 21.746,-24.699" style="fill:#333;fill-rule:nonzero;"/></g><g><path d="M2254.84,1009.39c15.492,-0.844 28.716,10.604 29.53,25.559c0.786,14.469 -3.688,46.05 -21.305,47.011c-17.627,0.958 -34.014,-29.48 -34.8,-43.944c-0.81,-14.962 11.083,-27.782 26.575,-28.626m219.837,0c14.982,0 27.128,11.73 27.128,26.208c0,13.992 -10.081,44.202 -27.128,44.202c-17.055,-0 -27.134,-30.21 -27.134,-44.202c0,-14.478 12.148,-26.208 27.134,-26.208m-42.993,87.253c10.43,-2.877 15.65,-5.495 26.166,-8.465c3.032,12.092 5.26,38.293 10.866,49.478l2.751,-31.786l4.461,-2.956l4.457,2.956l2.751,31.786c5.605,-11.185 7.835,-37.386 10.867,-49.478c10.516,2.97 15.736,5.588 26.166,8.465c6.881,1.904 8.695,2.674 8.974,4.702c1.19,0.955 2.304,2.165 3.295,3.655c8.553,12.86 37.109,57.734 37.439,70.238c0.996,37.776 -3.276,48.271 -6.65,76.255c-2.277,18.89 -25.359,18.227 -24.183,-0.772c1.782,-28.819 3.375,-45.367 1.996,-71.519c-3.672,-9.406 -7.763,-17.766 -12.237,-25.758c-0.914,31.788 -2.765,76.02 -2.765,117.06l-7.36,-0c-2.73,56.952 -4.999,121.903 -6.278,175.165c-0.058,2.393 -2.033,4.33 -4.428,4.33c-11.678,-0 -23.573,2.209 -23.743,-4.314l-4.453,-169.907c-0.142,-5.402 -7.557,-5.402 -7.699,-0l-4.453,169.907c-0.17,6.523 -12.063,4.314 -23.743,4.314c-2.395,-0 -4.37,-1.937 -4.428,-4.33c-1.281,-53.262 -3.548,-118.213 -6.278,-175.165l-7.36,-0c-0,-30.803 0.644,-63.41 -0.261,-91.197c-0.539,-16.608 -2.318,-31.5 -3.711,-43.258c-14.892,7.742 -29.849,14.744 -46.509,21.513c-14.25,5.793 -24.587,-8.606 -20.601,-17.059c5.404,-28.468 15.578,-55.301 27.205,-81.237c7.8,-17.39 30.668,-10.35 23.899,7.465c-6.13,16.14 -12.02,33.844 -16.881,53.492l32.647,-19.755c3.714,-1.958 5.732,-2.621 10.081,-3.825m255.318,-87.209c-15.487,-0.844 -28.714,10.602 -29.528,25.559c-0.781,14.464 3.686,46.046 21.308,47.004c17.622,0.958 34.009,-29.477 34.793,-43.941c0.814,-14.957 -11.081,-27.775 -26.573,-28.622m34.026,234.099c0.144,-26.691 1.914,-52.206 1.288,-80.146l0.61,-6.116l4.581,5.028c4.213,5.558 8.236,11.413 12.008,17.994c-6.032,24.452 -9.89,41.163 -18.487,63.24m-75.293,-137.926c-0.239,-0.995 -0.286,-1.902 0.486,-2.711c4.812,-5.053 12.374,-7.542 21.201,-11.1c-4.506,9.391 -8.069,28.213 -8.525,42.488c2.526,-7.999 9.544,-27.27 13.599,-34.344l5.135,0.119c-4.216,11.929 -7.483,28.282 -7.69,41.448c7.506,-20.129 16.38,-38.823 25.254,-50.378c6.309,1.628 24.403,6.469 28.312,9.395c2.556,1.914 2.772,3.534 3.607,5.455l0.223,0.103c10.22,13.192 41.9,55.91 43.809,70.818c1.565,12.16 -22.041,68.766 -27.798,82.795c-4.735,11.546 -15.844,12.19 -21.966,6.63c0.097,2.427 0.213,4.869 0.355,7.334l-5.795,-0.163l0.017,0.372c-4.209,50.509 -0.684,117.795 -1.258,170.399c-0.04,3.395 -2.107,5.727 -5.207,5.727l-20.485,-0.011c-2.546,-0 -4.795,-1.77 -5.044,-4.302c-3.279,-33.368 -6.334,-78.435 -8.585,-118.918c-0.047,-0.814 -1.565,0.644 -1.637,1.141c-5.509,38.103 -8.888,79.205 -12.041,117.777c-0.205,2.518 -1.989,4.302 -4.53,4.302l-20.492,0.011c-3.093,0.005 -5.714,-2.344 -5.879,-5.727l6.053,-170.48c-1.625,-0.081 -1.725,-0.035 -3.42,-0.128c0.925,-26.345 0.935,-78.904 4.372,-120.18c-8.986,8.569 -18.555,16.891 -28.675,24.979c-6.235,4.984 -15.332,3.965 -20.313,-2.269c-11.853,-14.841 -9.534,-72.368 -10.776,-92.997c-1.121,-19.105 23.226,-21.159 24.366,-1.697c1.139,18.82 4.451,39.544 7.511,58.354c2.918,-2.648 5.823,-5.351 8.699,-8.116c8.774,-8.427 19.194,-16.882 27.117,-26.126m-425.635,168.034c1.477,-25.75 2.893,-48.332 1.886,-74.1c-0.458,-11.723 -1.337,-23.922 -2.463,-36.186c-4.199,6.904 -8.106,14.18 -11.548,22.47c-0.446,28.75 -2.209,38.256 1.451,65.991c2.661,20.169 -23.833,23.717 -26.498,3.516c-1.988,-15.073 -9.216,-67.46 -4.676,-78.639c9.729,-23.949 22.2,-47.65 36.016,-69.777c0.723,-2.569 2.121,-4.967 4.065,-6.427c3.911,-2.925 23.428,-8.139 29.74,-9.765c8.873,11.556 15.487,21.757 22.996,41.886c-0.921,-11.499 -3.047,-21.826 -7.263,-33.758l5.135,-0.119c4.058,7.077 9.816,20.615 12.341,28.617c-0.456,-13.325 -2.849,-27.277 -7.355,-36.667c11.176,2.058 15.694,5.625 20.74,15.229c11.283,21.459 22.303,47.697 35.158,68.27c21.79,13.987 33.077,19.668 55.439,31.237c18.38,9.502 7.964,31.554 -11.309,24.022c-25.47,-9.953 -39.969,-15.587 -61.487,-30.449c-3.478,-2.26 -6.062,-5.304 -8.164,-8.444c-1.654,-2.474 -3.009,-5.011 -4.265,-7.264c3.263,26.344 4.623,50.087 6.069,90.357c-1.695,0.095 -3.358,0.181 -4.983,0.26l14.225,89.548l-4.305,80.818c-0.163,3.383 -2.783,5.732 -5.878,5.727l-20.49,-0.011c-2.546,-0 -4.586,-1.768 -4.534,-4.302c0.155,-7.781 -2.444,-54.169 -1.103,-82.232c-0.141,-3.498 -6.957,-31.205 -12.873,-55.641l-7.249,55.641c-7.42,33.13 -16.043,55.482 -22.31,82.232c-0.593,2.534 -3.079,4.302 -5.625,4.302l-20.489,0.011c-3.098,0.005 -5.119,-2.344 -4.43,-5.727l16.55,-80.818c0.018,-5.6 4.453,-72.833 5.332,-89.597l-7.846,-0.211Z" style="fill:#333;"/><path d="M2336.13,886.291c22.273,-0 40.328,18.054 40.328,40.33c-0,22.27 -18.055,40.327 -40.328,40.327c-22.273,0 -40.327,-18.057 -40.327,-40.327c-0,-22.276 18.054,-40.33 40.327,-40.33m53.941,81.918l-12.35,12.35l-9.586,-7.841c-6.481,4.509 -13.959,7.69 -22.04,9.136l-1.233,12.316l-17.464,-0l-1.232,-12.316c-8.079,-1.446 -15.562,-4.63 -22.043,-9.139l-9.583,7.844l-12.35,-12.348l7.841,-9.585c-4.511,-6.484 -7.688,-13.962 -9.137,-22.043l-12.315,-1.23l-0,-17.467l12.315,-1.23c1.449,-8.081 4.626,-15.562 9.137,-22.045l-7.841,-9.583l12.35,-12.35l9.583,7.846c6.481,-4.512 13.964,-7.695 22.043,-9.139l1.232,-12.313l17.464,-0l1.233,12.313c8.081,1.446 15.559,4.623 22.04,9.136l9.586,-7.843l12.35,12.352l-7.841,9.583c4.511,6.481 7.688,13.962 9.136,22.043l12.313,1.23l0,17.467l-12.313,1.23c-1.446,8.081 -4.625,15.557 -9.136,22.04l7.841,9.586Zm-54.127,-13.074c37.544,0.247 37.916,-56.785 0.372,-57.031c-37.541,-0.242 -37.916,56.789 -0.372,57.031m0.077,-11.774c22.043,0.145 22.257,-33.337 0.219,-33.479c-22.043,-0.144 -22.257,33.338 -0.219,33.479m126.706,-11.927c2.658,6.267 9.892,9.188 16.159,6.53c6.265,-2.66 9.186,-9.895 6.528,-16.162c-2.663,-6.264 -9.895,-9.187 -16.16,-6.527c-6.267,2.663 -9.187,9.895 -6.527,16.159m-9.516,-76.027l6.339,11.85c9.383,-2.307 18.95,-2.295 27.987,-0.242l6.139,-11.966l15.997,6.464l-3.895,12.872c7.922,4.802 14.815,11.438 19.963,19.61l12.797,-4.121l6.744,15.883l-11.853,6.346c2.3,9.383 2.291,18.943 0.242,27.984l11.969,6.135l-6.465,16.001l-12.869,-3.893c-4.802,7.925 -11.436,14.813 -19.615,19.962l4.123,12.797l-15.885,6.743l-6.341,-11.85c-9.383,2.304 -18.95,2.293 -27.984,0.242l-6.139,11.964l-15.997,-6.462l3.893,-12.869c-7.925,-4.804 -14.813,-11.439 -19.959,-19.613l-12.802,4.121l-6.744,-15.887l11.853,-6.342c-2.305,-9.383 -2.293,-18.945 -0.242,-27.982l-11.967,-6.139l6.463,-15.999l12.869,3.895c4.799,-7.927 11.434,-14.815 19.615,-19.964l-4.121,-12.799l15.885,-6.741Zm-2.914,81.311c5.577,13.124 20.736,19.25 33.863,13.671c13.132,-5.572 19.257,-20.736 13.683,-33.865c-5.576,-13.127 -20.738,-19.253 -33.87,-13.676c-13.127,5.576 -19.252,20.736 -13.676,33.87m-18.554,7.874c9.927,23.377 36.918,34.281 60.298,24.356c23.38,-9.929 34.282,-36.921 24.357,-60.301c-9.93,-23.377 -36.921,-34.281 -60.301,-24.356c-23.378,9.927 -34.281,36.923 -24.354,60.301m225.001,-4.644c-1.216,4.63 -3.053,9.006 -5.415,13.036l6.485,10.799l-14.515,14.499l-10.788,-6.494c-4.034,2.353 -8.416,4.183 -13.048,5.397l-3.044,12.213l-20.517,-0.014l-3.037,-12.215c-4.625,-1.219 -9.002,-3.054 -13.036,-5.414l-10.795,6.483l-14.499,-14.517l6.495,-10.788c-2.354,-4.035 -4.186,-8.416 -5.398,-13.046l-12.213,-3.046l0.01,-20.515l12.22,-3.037c1.216,-4.628 3.053,-9.004 5.416,-13.034l-6.486,-10.799l14.513,-14.497l10.792,6.495c4.035,-2.356 8.414,-4.186 13.044,-5.395l3.046,-12.216l20.517,0.012l3.037,12.215c4.626,1.221 9.002,3.056 13.034,5.419l10.8,-6.486l14.494,14.513l-6.495,10.79c2.356,4.037 4.188,8.416 5.4,13.048l12.213,3.044l-0.012,20.52l-12.218,3.03Zm-16.845,-13.309c-0.028,44.367 -67.428,44.33 -67.403,-0.037c0.026,-44.369 67.424,-44.332 67.403,0.037m-15.857,-0.009c-0.012,23.496 -35.705,23.475 -35.693,-0.019c0.014,-23.498 35.709,-23.479 35.693,0.019" style="fill:#333;"/></g><g><path d="M461.206,1053.25l6.416,-64c0.5,-4.949 1.132,-11.253 5.037,-14.339c4.104,-3.237 12.315,-4.762 17.438,-6.192c12.753,-3.537 17.015,-6.749 29.872,-10.397c3.707,14.852 8.677,41.776 15.53,55.515l3.241,-33.787l5.454,-3.63l5.455,3.63l3.242,33.787c6.853,-13.739 11.822,-40.663 15.529,-55.515c12.857,3.648 17.12,6.86 29.87,10.397c5.104,1.425 13.662,3.004 17.655,6.371c3.711,3.14 4.334,9.304 4.823,14.16l6.415,64c0.593,5.926 -3.053,11.309 -8.762,12.925l-74.227,21.015l-74.226,-21.015c-5.709,-1.616 -9.355,-6.999 -8.762,-12.925m82.994,-198.201c19.267,0 34.884,15.15 34.884,33.849c0,18.08 -12.964,57.106 -34.884,57.106c-21.931,-0 -34.895,-39.026 -34.895,-57.106c0,-18.699 15.622,-33.849 34.895,-33.849m49.6,410.639l5.318,-53.05c0.425,-4.216 0.965,-9.59 4.293,-12.218c3.499,-2.76 10.499,-4.06 14.864,-5.277c10.867,-3.016 16.082,-5.753 27.038,-8.864c3.16,12.66 5.483,32.426 11.327,44.139l3.09,-25.619l4.651,-3.093l4.649,3.093l3.092,25.619c5.842,-11.713 8.165,-31.479 11.325,-44.139c10.955,3.111 16.171,5.848 27.038,8.864c4.351,1.21 11.644,2.558 15.046,5.428c3.162,2.677 3.695,7.93 4.111,12.067l5.318,53.05c0.596,5.923 -3.055,11.306 -8.762,12.922l-61.817,17.504l-61.819,-17.504c-5.707,-1.616 -9.355,-6.999 -8.762,-12.922m70.581,-161.878c15.613,-0 28.27,12.278 28.27,27.428c0,14.651 -10.506,46.274 -28.27,46.274c-17.766,0 -28.273,-31.623 -28.273,-46.274c0,-15.15 12.66,-27.428 28.273,-27.428m-310.957,161.878l5.319,-53.05c0.425,-4.216 0.967,-9.59 4.292,-12.218c3.5,-2.76 10.497,-4.06 14.865,-5.277c10.866,-3.016 16.082,-5.753 27.04,-8.864c3.16,12.66 5.483,32.426 11.322,44.139l3.093,-25.619l4.651,-3.093l4.648,3.093l3.093,25.619c5.842,-11.713 8.165,-31.479 11.325,-44.139c10.958,3.111 16.171,5.848 27.038,8.864c4.351,1.21 11.643,2.558 15.045,5.428c3.165,2.677 3.696,7.93 4.11,12.067l5.32,53.05c0.593,5.923 -3.053,11.306 -8.762,12.922l-61.817,17.504l-61.819,-17.504c-5.707,-1.616 -9.356,-6.999 -8.763,-12.922m70.584,-161.878c15.613,-0 28.268,12.278 28.268,27.428c0,14.651 -10.504,46.274 -28.268,46.274c-17.768,0 -28.275,-31.623 -28.275,-46.274c0,-15.15 12.662,-27.428 28.275,-27.428m-177.47,346.55l5.072,-50.565c0.34,-3.374 0.772,-7.671 3.435,-9.773c2.797,-2.21 8.395,-3.247 11.89,-4.223c8.694,-2.41 12.415,-4.602 21.182,-7.088c2.528,10.127 4.386,24.586 9.06,33.956l2.923,-19.141l3.718,-2.474l3.719,2.474l2.923,19.141c4.674,-9.37 6.532,-23.829 9.062,-33.956c8.765,2.486 12.485,4.678 21.18,7.088c3.481,0.972 9.316,2.051 12.036,4.343c2.533,2.142 2.956,6.344 3.291,9.653l5.072,50.565l-114.563,-0Zm57.283,-137.626c12.487,-0 22.615,9.824 22.615,21.942c-0,11.723 -8.405,37.017 -22.615,37.017c-14.213,-0 -22.62,-25.294 -22.62,-37.017c0,-12.118 10.13,-21.942 22.62,-21.942m183.092,137.626l5.072,-50.565c0.337,-3.374 0.772,-7.671 3.433,-9.773c2.799,-2.21 8.397,-3.247 11.892,-4.223c8.692,-2.41 12.415,-4.602 21.182,-7.088c2.528,10.127 4.386,24.586 9.06,33.956l2.923,-19.141l3.719,-2.474l3.72,2.474l2.921,19.141c4.674,-9.37 6.532,-23.829 9.06,-33.956c8.767,2.486 12.49,4.678 21.182,7.088c3.481,0.972 9.314,2.051 12.037,4.343c2.532,2.142 2.955,6.344 3.29,9.653l5.07,50.565l-114.561,-0Zm57.283,-137.626c12.49,-0 22.615,9.824 22.615,21.942c-0,11.723 -8.404,37.017 -22.615,37.017c-14.216,-0 -22.62,-25.294 -22.62,-37.017c0,-12.118 10.128,-21.942 22.62,-21.942m183.093,137.626l5.071,-50.565c0.338,-3.374 0.772,-7.671 3.435,-9.773c2.798,-2.21 8.395,-3.247 11.89,-4.223c8.695,-2.41 12.415,-4.602 21.18,-7.088c2.53,10.127 4.388,24.586 9.062,33.956l2.923,-19.141l3.719,-2.474l3.718,2.474l2.923,19.141c4.674,-9.37 6.532,-23.829 9.062,-33.956c8.765,2.486 12.486,4.678 21.18,7.088c3.481,0.972 9.314,2.051 12.037,4.343c2.532,2.142 2.955,6.344 3.288,9.653l5.072,50.565l-114.56,-0Zm57.282,-137.626c12.488,-0 22.615,9.824 22.615,21.942c-0,11.723 -8.404,37.017 -22.615,37.017c-14.215,-0 -22.619,-25.294 -22.619,-37.017c-0,-12.118 10.127,-21.942 22.619,-21.942" style="fill:#333;"/><path d="M655.804,1316.38c-0,-4.758 3.839,-8.616 8.576,-8.616c4.737,0 8.576,3.858 8.576,8.616l0,47.562l40.935,23.738c4.086,2.36 5.497,7.606 3.149,11.711c-2.349,4.106 -7.57,5.523 -11.658,3.165l-41.002,-23.78l-41.002,23.78c-4.088,2.358 -9.309,0.941 -11.657,-3.165c-2.349,-4.105 -0.937,-9.351 3.148,-11.711l40.935,-23.738l-0,-47.562Zm-240.375,-0c-0,-4.758 3.839,-8.616 8.576,-8.616c4.735,0 8.576,3.858 8.576,8.616l0,47.562l40.932,23.738c4.089,2.36 5.5,7.606 3.151,11.711c-2.348,4.106 -7.569,5.523 -11.657,3.165l-41.002,-23.78l-41.002,23.78c-4.088,2.358 -9.306,0.941 -11.657,-3.165c-2.349,-4.105 -0.94,-9.351 3.151,-11.711l40.932,-23.738l-0,-47.562Zm120.187,-208.924c0,-4.758 3.842,-8.616 8.577,-8.616c4.736,0 8.576,3.858 8.576,8.616l-0,47.562l40.934,23.741c4.088,2.36 5.498,7.604 3.149,11.708c-2.346,4.109 -7.567,5.525 -11.657,3.165l-41.002,-23.78l-41,23.78c-4.091,2.36 -9.311,0.944 -11.66,-3.165c-2.346,-4.104 -0.937,-9.348 3.151,-11.708l40.932,-23.741l0,-47.562Z" style="fill:#333;"/></g><g><path d="M1391.89,1114.07c-21.073,-0.059 -42.081,-0.177 -63.149,-0.235c-21.071,-0.117 -42.081,-0.177 -63.094,-0.293c0.572,-26.808 3.681,-51.42 13.455,-66.552c9.804,-15.185 23.129,-20.954 36.64,-24.526c1.374,14.283 4.523,23.18 8.36,27.452c0.744,-5.793 1.43,-11.649 2.232,-17.502c1.833,-1.872 3.665,-3.804 5.439,-5.734c1.605,1.988 3.265,3.921 4.809,5.853c0.175,5.621 0.344,11.12 0.516,16.68c4.523,-4.797 8.588,-13.929 11.223,-26.279c13.053,3.862 25.626,9.962 34.065,25.168c8.451,15.231 10.076,39.509 9.504,65.968m-53.42,-180.224c16.806,0.382 29.224,13.811 27.943,30.026c-1.235,15.625 -14.774,49.197 -33.837,48.934c-19.067,-0.262 -28.089,-34.421 -26.91,-50.164c1.223,-16.331 16.003,-29.177 32.804,-28.796" style="fill:#333;fill-rule:nonzero;"/><path d="M1101.12,981.8l5.808,-79.067l-78.615,77.93l72.807,1.137Zm21.393,-119.773c56.281,1.695 112.563,3.365 168.783,5.032c56.277,1.667 112.616,3.395 168.896,5.093c6.355,0.172 10.992,5.444 10.248,11.704c-5.839,58.535 -11.479,117.204 -13.969,175.951c-2.488,58.619 -1.433,117.537 0.684,176.303c-7.614,1.641 -15.113,3.397 -22.729,5.036c-2.116,-57.833 -3.402,-115.69 -1.2,-173.435c2.207,-57.868 7.499,-115.546 13.053,-173.203c-52.732,-1.46 -105.403,-2.897 -158.076,-4.33c-52.671,-1.432 -105.345,-2.867 -158.018,-4.329c-2.921,35.704 -5.553,71.351 -7.844,106.997c-0.286,5.386 -4.809,9.776 -10.078,9.718c-32.633,-0.528 -65.266,-1.053 -97.845,-1.523c-2.976,69.772 -4.779,139.561 -3.09,209.317c1.688,69.732 5.839,139.307 9.904,208.905c71.167,-1.872 142.33,-3.807 213.497,-5.679c71.221,-1.872 142.389,-3.804 213.61,-5.676c-2.863,-27.219 -5.553,-54.497 -8.016,-81.772c7.56,-1.755 15.06,-3.511 22.617,-5.267c2.977,32.603 6.356,65.205 9.904,97.75c0.744,6.262 -3.892,11.413 -10.25,11.59c-75.286,2.165 -150.574,4.36 -225.804,6.555c-75.23,2.193 -150.518,4.39 -225.748,6.614c-6.412,0.176 -11.851,-5.033 -12.253,-11.59c-4.179,-73.4 -8.646,-146.896 -10.362,-220.377c-1.719,-73.502 0.4,-147.155 3.607,-220.73c0.172,-3.513 1.718,-6.555 4.123,-8.664c38.757,-39.158 77.978,-77.965 117.655,-116.481c2.518,-2.458 5.611,-3.57 8.643,-3.453l0.058,-0.056Zm176.682,419.096c29.314,-6.674 58.629,-13.462 87.941,-20.078c29.314,-6.613 58.684,-13.227 88.055,-19.84c0.802,3.16 1.66,6.32 2.462,9.48c-29.314,6.556 -58.677,13.258 -87.938,19.901c-29.252,6.642 -58.629,13.465 -87.885,20.197c-0.972,-3.163 -1.833,-6.384 -2.635,-9.66m-101.452,39.746c46.949,-11.004 93.827,-22.119 140.726,-32.898c46.825,-10.759 93.783,-21.422 140.673,-32.074c4.353,15.92 8.929,31.784 13.568,47.587c-46.717,10.827 -93.631,21.685 -140.497,32.661c-46.853,10.974 -93.783,22.301 -140.731,33.54c-4.637,-16.213 -9.271,-32.487 -13.739,-48.816m20.097,1.637c42.309,-9.95 84.622,-19.843 126.873,-29.616c42.251,-9.774 84.562,-19.434 126.873,-29.033c0.456,1.874 0.972,3.63 1.486,5.441c-42.251,9.66 -84.569,19.234 -126.813,29.035c-42.26,9.804 -84.564,19.727 -126.873,29.733c-0.516,-1.811 -1.03,-3.685 -1.546,-5.56m-29.315,0.528c-8.073,5.618 -15.708,13.223 -23.814,18.906c-8.095,5.672 -16.746,9.413 -24.908,15.159c-1.398,0.984 -1.823,2.693 -1.432,4.098c0.409,1.463 1.667,2.765 3.378,2.986c10.083,1.3 19.641,0.674 29.717,1.99c10.076,1.316 20.666,4.449 30.745,5.737c-4.581,-16.215 -9.163,-32.544 -13.686,-48.876m301.323,-63.626c9.506,-2.049 18.947,-4.174 28.454,-6.323c9.901,-2.237 20.385,4.098 23.189,14.048c2.918,9.893 -2.914,19.929 -12.883,22.245c-9.439,2.191 -18.838,4.33 -28.282,6.437c-3.607,-12.057 -7.099,-24.231 -10.478,-36.407m-428.538,-88.736c-6.299,-0 -11.45,-5.328 -11.566,-11.825c-0,-6.613 5.097,-11.941 11.394,-11.941c53.304,0.058 106.666,0.091 159.964,0.116c53.304,0.031 106.661,0.119 160.023,0.119c6.241,0.058 11.45,5.148 11.392,11.532c0.116,6.32 -4.981,11.471 -11.22,11.471c-53.36,0.058 -106.724,0.147 -160.022,0.235c-53.304,0.086 -106.663,0.174 -159.965,0.293m1.089,50.746c-6.298,0.06 -11.623,-5.209 -11.737,-11.704c-0.172,-6.558 4.809,-11.939 11.104,-12.002c34.182,-0.116 68.419,-0.263 102.54,-0.409c34.179,-0.144 68.419,-0.293 102.598,-0.409c6.356,-0.059 11.681,5.092 11.853,11.531c0.17,6.321 -4.753,11.59 -11.109,11.648c-34.237,0.233 -68.474,0.412 -102.651,0.645c-34.179,0.232 -68.421,0.467 -102.598,0.7m1.944,50.399c-6.297,0.058 -11.679,-5.209 -11.965,-11.707c-0.286,-6.615 4.696,-11.943 10.993,-11.999c30.458,-0.293 60.914,-0.586 91.378,-0.879c6.353,0 11.676,5.151 11.964,11.648c0.286,6.439 -4.581,11.767 -10.878,11.825c-30.517,0.409 -61.031,0.702 -91.492,1.112" style="fill:#333;"/></g><g><path d="M5305.65,1110.57l0.858,-54.445l-174.009,-0c-17.576,-0 -32.019,-14.441 -32.019,-32.019l-0,-137.036c-0,-17.626 14.392,-32.016 32.019,-32.016l252.479,-0c17.627,-0 32.021,14.39 32.021,32.016l0,137.036c0,8.813 -3.607,16.824 -9.402,22.619l-0.018,-0.018c-11.193,11.18 -22.983,9.418 -37.403,9.418l-49.034,60.089l-0.004,-0.005c-5.2,6.379 -15.618,2.625 -15.488,-5.639m16.344,-175.298c26.749,-0 26.749,40.634 -0,40.634c-26.75,0 -26.75,-40.634 -0,-40.634m14.064,-15.911c3.741,1.451 7.195,3.47 10.271,5.944l16.329,-4.688l9.958,17.248l-12.218,11.787l0,11.876l12.216,11.79l-9.958,17.25l-16.331,-4.69c-3.072,2.474 -6.533,4.49 -10.274,5.941l-4.098,16.474l-19.919,-0l-4.102,-16.476c-3.74,-1.453 -7.198,-3.467 -10.272,-5.941l-16.327,4.685l-9.959,-17.247l12.217,-11.79l0.003,-11.872l-12.218,-11.792l9.96,-17.248l16.329,4.688c3.074,-2.472 6.534,-4.488 10.274,-5.941l4.099,-16.473l19.92,-0l4.1,16.475Zm-126.136,18.904c22.81,-0 22.81,34.649 -0,34.649c-22.81,-0 -22.81,-34.649 -0,-34.649m-0,-15.39c43.069,-0 43.069,65.428 -0,65.428c-43.072,0 -43.072,-65.428 -0,-65.428m12.913,-16.362c4.495,1.177 8.741,2.958 12.657,5.246l10.479,-6.299l14.085,14.083l-6.302,10.478c2.288,3.914 4.069,8.167 5.246,12.662l11.86,2.949l-0,19.919l-11.862,2.951c-1.177,4.493 -2.958,8.744 -5.247,12.658l6.302,10.478l-14.085,14.083l-10.476,-6.3c-3.916,2.288 -8.169,4.07 -12.662,5.246l-2.953,11.86l-19.915,0l-2.953,-11.86c-4.493,-1.179 -8.744,-2.958 -12.658,-5.248l-10.478,6.302l-14.085,-14.085l6.302,-10.476c-2.289,-3.916 -4.07,-8.17 -5.247,-12.665l-11.859,-2.948l-0,-19.918l11.859,-2.953c1.179,-4.493 2.961,-8.741 5.249,-12.657l-6.302,-10.479l14.085,-14.082l10.479,6.299c3.916,-2.288 8.169,-4.069 12.659,-5.246l2.954,-11.86l19.915,0l2.953,11.862Zm101.247,141.768l-0.593,37.444l35.793,-43.865c1.725,-2.118 4.237,-3.218 6.774,-3.22l-0,-0.028c12.89,-0 22.189,1.958 29.175,-4.251l-0.017,-0.019c2.63,-2.632 4.27,-6.258 4.27,-10.236l-0,-137.036c-0,-7.96 -6.546,-14.503 -14.506,-14.503l-252.479,-0c-7.955,-0 -14.502,6.543 -14.502,14.503l0,137.036c0,8.004 6.502,14.506 14.502,14.506l182.872,-0c5.185,-0 9.241,4.478 8.711,9.669" style="fill:#333;"/><path d="M5339.19,1248.1l42.311,29.773c-7.306,-24.45 -13.68,-39.33 -27.756,-69.461c-12.078,-24.031 22.884,-41.874 34.958,-17.848c21.522,45.449 29.156,62.466 42.481,114.309c4.281,16.667 -7.862,32.37 -25.24,27.173c-23.189,-6.937 -46.221,-16.915 -70.103,-29.575c-3.595,60.443 -2.465,66.784 -3.83,147.886l-144.097,-0c1.286,-41.172 -1.37,-83.081 -0.235,-123.19l-11.037,65.573l-7.239,57.617l-38.516,-0l6.728,-73.556l21.291,-109.944c1.365,-7.051 1.605,-16.992 8.311,-20.324c2.819,-1.4 3.323,-1.451 6.286,-2.349l57.117,-17.468c3.751,19.747 10.004,49.906 19.008,68.002l2.23,-44.52l6.874,-4.709l6.877,4.709l2.248,45.022c8.935,-17.831 13.888,-48.72 18.722,-67.995c16.76,4.737 18.971,6.039 35.591,10.629c9.332,2.591 13.92,7.437 17.02,10.246m-80.465,-126.566c-20.352,0 -36.853,15.934 -36.853,35.605c-0,19.012 13.692,60.056 36.853,60.056c23.162,0 36.863,-41.044 36.863,-60.056c0,-19.671 -16.503,-35.605 -36.863,-35.605" style="fill:#333;"/></g></g></svg>