<?xml version="1.0" encoding="UTF-8" standalone="no"?><!DOCTYPE svg PUBLIC "-//W3C//DTD SVG 1.1//EN" "http://www.w3.org/Graphics/SVG/1.1/DTD/svg11.dtd"><svg width="100%" height="100%" viewBox="0 0 423 478" version="1.1" xmlns="http://www.w3.org/2000/svg" xmlns:xlink="http://www.w3.org/1999/xlink" xml:space="preserve" xmlns:serif="http://www.serif.com/" style="fill-rule:evenodd;clip-rule:evenodd;stroke-linejoin:round;stroke-miterlimit:2;"><g id="heart"><g id="XMLID_524_"><path d="M258.892,107.308c-11.162,-28.729 -43.275,-75.529 -76.1,-95.342c-21.579,-13.025 -41.183,-14.941 -56.046,-7.754l-0.083,-0.104l-102.058,58.658l163.241,409.838c0,-0 73.171,-359.842 71.046,-365.296Z" style="fill:#88119b;fill-rule:nonzero;"/></g><g id="XMLID_522_"><path d="M338.084,107.416c-22.329,-13.475 -53.521,-14.812 -71.5,-4.579l-86.238,50.133l-39.804,146.496l44.633,166.396c1.121,4.175 -4.287,10.775 -0.654,8.683c0,0 99.742,-56.054 100.742,-56.812l106.029,-80.279c19.475,-14.896 30.229,-42.796 30.229,-78.421c-0.004,-55.921 -37.362,-123.8 -83.437,-151.617Z" style="fill:#c52887;fill-rule:nonzero;"/></g><g id="XMLID_501_"><g id="XMLID_513_"><path d="M293.875,392.333c19.475,-14.9 30.23,-42.796 30.23,-78.421c-0,-55.925 -37.359,-123.808 -83.434,-151.621c-33.316,-20.108 -67.254,-12.646 -78.108,4.604c-0,0 -20.021,-63.387 -78.192,-98.941c-44.516,-27.213 -83.358,-4.984 -83.358,50.941c-0,35.625 10.812,76.538 30.392,115.013l105.97,208.229c13.421,26.371 37.05,40.638 50.475,30.471l106.025,-80.275Z" style="fill:#ff3e6f;fill-rule:nonzero;"/></g></g><g id="XMLID_495_"><g id="XMLID_500_"><path d="M247.188,364.675c12.554,-9.605 19.483,-27.58 19.483,-50.538l0,-0.004c0,-36.038 -24.071,-79.788 -53.771,-97.713c-21.47,-12.958 -43.341,-8.15 -50.337,2.971c-0,0 -12.904,-40.854 -50.392,-63.771c-28.691,-17.537 -53.725,-3.212 -53.725,32.834c0,22.958 6.967,49.325 19.584,74.121l68.295,134.195c8.65,16.996 23.88,26.192 32.534,19.642l68.329,-51.737Z" style="fill:#fff;fill-rule:nonzero;"/></g></g></g></svg>