<?xml version="1.0" encoding="UTF-8" standalone="no"?><!DOCTYPE svg PUBLIC "-//W3C//DTD SVG 1.1//EN" "http://www.w3.org/Graphics/SVG/1.1/DTD/svg11.dtd"><svg width="100%" height="100%" viewBox="0 0 794 765" version="1.1" xmlns="http://www.w3.org/2000/svg" xmlns:xlink="http://www.w3.org/1999/xlink" xml:space="preserve" xmlns:serif="http://www.serif.com/" style="fill-rule:evenodd;clip-rule:evenodd;stroke-linejoin:round;stroke-miterlimit:2;"><g id="pension"><g><g><g><path d="M732.411,251.447l-393.05,-226.959c-3.971,-2.288 -6.116,-5.259 -6.366,-8.264l-0.038,0l0,120.906c-0.322,3.467 1.861,6.972 6.4,9.583l306.742,177.11c36.175,20.885 81.981,7.589 102.446,-28.824c0.102,-0.186 0.208,-0.364 0.311,-0.542c8.718,-14.645 2.19,-32.241 -16.445,-43.01Z" style="fill:#1b0044;fill-rule:nonzero;"/></g><g><path d="M757.381,317.442c-40.418,23.39 -97.728,23.159 -138.112,-0.231l-395.691,-225.879c-4.248,-2.467 -6.392,-5.726 -6.392,-8.943l-0,427.065c0.106,3.149 2.25,6.297 6.392,8.658l392.413,226.959c40.419,23.356 106.19,23.356 146.608,0c19.499,-11.299 28.854,-26.088 30.206,-40.842c0.05,-0.504 0.076,-431.305 0.076,-431.305c0,15.383 -15.327,32.821 -35.5,44.518Z" style="fill:#022677;fill-rule:nonzero;"/></g><g><path d="M217.189,81.995l0,0.394c0,-0.14 0,-0.246 0.038,-0.394l-0.038,0Z" style="fill:#430017;fill-rule:nonzero;"/></g><g><path d="M763.482,233.513l-393.066,-226.947c-8.578,-4.953 -22.484,-4.953 -31.055,-0c-8.578,4.952 -8.578,12.981 0,17.93l393.065,226.944c23.352,13.485 23.352,35.42 0,48.902c-23.352,13.481 -61.345,13.485 -84.701,-0l-393.069,-226.94c-8.579,-4.953 -22.485,-4.953 -31.055,-0c-8.571,4.952 -8.579,12.981 -0,17.93l393.069,226.943c40.475,23.372 98.478,34.871 146.808,0c37.91,-27.345 40.479,-61.394 0.004,-84.762Z" style="fill:#1b0044;fill-rule:nonzero;"/></g><g><g><path d="M792.881,446.483c-2.019,9.712 -10.28,20.162 -23.719,29.858c-54.461,39.301 -115.746,9.408 -133.233,-0.689l-85.993,-49.653c-5.987,-3.452 -13.644,-1.405 -17.104,4.585c-3.456,5.983 -1.402,13.641 4.585,17.1l85.993,49.653c27.528,15.891 56.158,23.829 83.523,23.829c27.767,0 73.278,-14.474 85.948,-38.444l0,-36.239Z" style="fill:#1b0044;fill-rule:nonzero;"/></g></g><g><g><path d="M792.881,512.777c-2.019,9.715 -10.28,20.166 -23.719,29.862c-54.461,39.3 -115.746,9.408 -133.233,-0.69l-85.993,-49.652c-5.987,-3.456 -13.644,-1.406 -17.104,4.581c-3.456,5.987 -1.402,13.645 4.585,17.104l85.993,49.652c27.528,15.892 56.158,23.83 83.523,23.83c27.767,-0 73.278,-14.474 85.948,-38.444l0,-36.243Z" style="fill:#1b0044;fill-rule:nonzero;"/></g></g><g><g><path d="M792.881,579.079c-2.019,9.711 -10.28,20.161 -23.719,29.858c-54.461,39.3 -115.746,9.408 -133.233,-0.69l-85.993,-49.652c-5.987,-3.452 -13.644,-1.406 -17.104,4.585c-3.456,5.983 -1.402,13.64 4.585,17.1l85.993,49.652c27.528,15.891 56.158,23.83 83.523,23.83c27.767,-0 73.278,-14.475 85.948,-38.445l0,-36.238Z" style="fill:#1b0044;fill-rule:nonzero;"/></g></g><g><g><clipPath id="_clip1"><path d="M732.411,300.338c-23.352,13.485 -61.338,13.485 -84.69,-0l-393.054,-226.929c-8.582,-4.971 -22.496,-4.971 -31.078,0l115.772,-66.843l55.112,-50.888l338.484,199.068l-0.546,96.697c23.356,13.49 23.356,35.413 0,48.895Z"/></clipPath><g clip-path="url(#_clip1)"><g><g><path d="M684.794,165.954l-218.135,-125.957l0,249.534l261.08,150.746l0,-199.936c0,-30.684 -16.369,-59.045 -42.945,-74.387Z" style="fill:#155777;fill-rule:nonzero;"/></g><g><g><path d="M722.666,444.039c-0.879,0 -1.759,-0.231 -2.547,-0.682l-219.373,-126.669c-1.576,-0.91 -2.55,-2.592 -2.55,-4.411l-0,-209.438c-0,-1.819 0.974,-3.505 2.55,-4.414c1.576,-0.91 3.52,-0.91 5.093,-0l194.551,112.342c16.914,9.879 27.376,28.502 27.376,48.656l-0,179.52c-0,1.819 -0.974,3.501 -2.55,4.414c-0.792,0.455 -1.668,0.682 -2.55,0.682Zm-214.281,-134.702l209.184,120.781l0,-170.695c0,-16.543 -8.521,-31.798 -22.245,-39.816l-186.939,-107.943l-0,197.673Z" style="fill:#022677;fill-rule:nonzero;"/></g></g></g><g><g><path d="M662.881,134.857l-218.138,-125.957l0,249.534l261.084,150.745l-0,-199.935c-0,-30.684 -16.373,-59.045 -42.946,-74.387Z" style="fill:#022677;fill-rule:nonzero;"/></g><g><g><path d="M700.749,412.942c-0.879,0 -1.758,-0.227 -2.546,-0.682l-219.373,-126.669c-1.576,-0.91 -2.546,-2.592 -2.546,-4.411l-0,-209.438c-0,-1.819 0.97,-3.505 2.546,-4.414c1.576,-0.91 3.52,-0.91 5.096,-0l194.547,112.342c16.915,9.879 27.377,28.506 27.377,48.656l-0,179.52c-0,1.819 -0.97,3.505 -2.547,4.414c-0.792,0.459 -1.674,0.682 -2.554,0.682Zm-214.28,-134.702l209.188,120.785l-0,-170.699c-0,-16.539 -8.526,-31.798 -22.25,-39.816l-186.938,-107.943l-0,197.673Z" style="fill:#022677;fill-rule:nonzero;"/></g></g></g><g><g><path d="M636.127,127.184l-218.135,-125.957l0,249.534l261.08,150.746l0,-199.936c0,-30.687 -16.369,-59.041 -42.945,-74.387Z" style="fill:#0bdeae;fill-rule:nonzero;"/></g><g><g><path d="M673.998,405.269c-0.879,0 -1.758,-0.227 -2.55,-0.682l-219.373,-126.665c-1.576,-0.91 -2.55,-2.596 -2.55,-4.415l0,-209.434c0,-1.819 0.974,-3.505 2.55,-4.414c1.576,-0.91 3.52,-0.91 5.093,-0l194.551,112.342c16.914,9.878 27.376,28.506 27.376,48.652l-0,179.524c-0,1.818 -0.97,3.501 -2.55,4.41c-0.788,0.455 -1.664,0.682 -2.547,0.682Zm-214.276,-134.698l209.184,120.785l-0,-170.703c-0,-16.539 -8.522,-31.794 -22.246,-39.812l-186.938,-107.947l-0,197.677Z" style="fill:#022677;fill-rule:nonzero;"/></g></g></g><g><g><path d="M555.264,208.028l-240.191,-137.116l-0,304.26l237.853,137.571c28.789,16.634 75.626,16.634 104.416,-0c13.883,-8.048 20.552,-18.578 21.514,-29.089c0.034,-0.36 0.053,-285.364 0.053,-285.364c0,10.95 -36.421,49.467 -123.645,9.738Z" style="fill:#0bdeae;fill-rule:nonzero;"/></g><g><path d="M603.207,484.461c-12.33,0 -24.228,-2.618 -31.817,-7.01l-217.49,-125.786l-0,-210.556l179.231,102.313c20.242,11.723 44.34,17.934 69.633,17.934c31.381,-0 54.172,-1.001 74.235,-18.624l0,-12.951c-12.678,11.174 -29.914,21.39 -74.235,21.39c-23.504,-0 -45.894,-5.771 -64.582,-16.597l-194.471,-111.016l-0,233.984l222.583,128.734c9.215,5.324 22.666,8.378 36.917,8.378c50.705,-0 73.292,-27.05 73.747,-27.774c0.004,-2.152 0.007,-5.748 0.007,-10.545c-14.618,15.387 -36.515,28.126 -73.758,28.126Z" style="fill:#022677;fill-rule:nonzero;"/></g></g><g><g><path d="M581.999,215.701l-240.19,-137.112l-0,304.256l237.852,137.571c28.786,16.634 75.627,16.634 104.413,-0c13.887,-8.048 20.552,-18.574 21.518,-29.089c0.03,-0.36 0.049,-287.634 0.049,-287.634c0,10.951 -36.417,51.737 -123.642,12.008Z" style="fill:#155777;fill-rule:nonzero;"/></g><g><path d="M631.871,492.138c-12.329,-0 -24.223,-2.618 -31.817,-7.01l-217.49,-125.79l0,-210.556l179.232,102.313c20.245,11.723 44.34,17.937 69.632,17.937c31.385,0 54.176,-1 74.236,-18.627c0.004,-4.35 0.004,-8.673 0.004,-12.951c-12.682,11.174 -29.915,21.389 -74.24,21.389c-23.5,0 -45.89,-5.77 -64.581,-16.596l-194.468,-111.013l0,233.984l222.583,128.735c9.211,5.32 22.662,8.374 36.913,8.374c50.706,-0 73.293,-27.051 73.751,-27.771c0,-2.152 0.004,-5.751 0.004,-10.545c-14.611,15.38 -36.516,28.127 -73.759,28.127Z" style="fill:#022677;fill-rule:nonzero;"/></g></g><g><g><path d="M604.097,252.557l-240.19,-137.115l-0,304.256l237.852,137.574c28.786,16.634 75.627,16.634 104.413,0c13.887,-8.048 20.552,-18.578 21.514,-29.088c0.034,-0.36 0.053,-294.333 0.053,-294.333c0,10.954 -36.417,58.431 -123.642,18.706Z" style="fill:#0bdeae;fill-rule:nonzero;"/></g><g><path d="M653.969,528.991c-12.329,-0 -24.223,-2.619 -31.817,-7.01l-217.49,-125.787l0,-210.56l179.232,102.317c20.245,11.724 44.34,17.934 69.632,17.934c31.385,0 54.176,-1 74.236,-18.623c-0,-4.354 0.004,-8.677 0.004,-12.951c-12.682,11.174 -29.915,21.389 -74.24,21.389c-23.504,-0 -45.89,-5.775 -64.581,-16.596l-194.468,-111.017l0,233.984l222.583,128.735c9.211,5.323 22.662,8.377 36.913,8.377c50.706,0 73.293,-27.05 73.751,-27.774c0,-2.152 0.004,-5.752 0.004,-10.545c-14.611,15.388 -36.516,28.127 -73.759,28.127Z" style="fill:#022677;fill-rule:nonzero;"/></g></g></g></g></g><g><g id="XMLID_738_"><g><path d="M315.118,305.764l-95.019,-55.435c-8.169,-4.766 -18.225,-4.975 -26.584,-0.549l-5.57,2.952l139.749,151.848l14.524,-7.673c6.908,-4.017 11.208,-12.58 11.208,-24.811c0,-24.421 -17.134,-54.131 -38.308,-66.332Z" style="fill:#1b0044;fill-rule:nonzero;"/></g></g><g id="XMLID_737_"><g><path d="M297.916,310.8l-100.407,-57.966c-6.173,-3.562 -13.887,0.89 -13.887,8.018l-0,49.618c-0,14.11 7.525,27.141 19.741,34.193l98.228,56.711c10.587,6.112 20.143,6.68 27.085,2.686c9.639,-5.588 14.171,-19.987 9.135,-40.816c-5.369,-22.208 -20.108,-41.017 -39.895,-52.444Z" style="fill:#022677;fill-rule:nonzero;"/></g></g></g><g><g><g><path d="M303.437,333.822c-11.591,-6.684 -20.981,-1.266 -20.981,12.114c0,13.371 9.394,29.638 20.973,36.322c11.583,6.692 20.973,1.269 20.973,-12.106c-0,-13.376 -9.393,-29.638 -20.965,-36.33Z" style="fill:#1b0044;fill-rule:nonzero;"/></g></g></g><g><g><g><path d="M298.64,340.817c-9.568,-5.517 -17.324,-1.046 -17.324,10.007c-0,11.045 7.756,24.477 17.316,29.998c9.568,5.524 17.324,1.046 17.324,-10.003c-0,-11.045 -7.756,-24.478 -17.316,-30.002Z" style="fill:#fff;fill-rule:nonzero;"/></g></g></g></g></g><g id="heart_2_"><g id="XMLID_524_"><path d="M224.985,397.336c-9.695,-24.952 -37.585,-65.599 -66.094,-82.806c-18.742,-11.312 -35.768,-12.977 -48.677,-6.735l-0.072,-0.09l-88.639,50.946l141.777,355.949c0,0 63.55,-312.527 61.705,-317.264Z" style="fill:#88119b;fill-rule:nonzero;"/></g><g id="XMLID_522_"><path d="M293.764,397.43c-19.393,-11.704 -46.484,-12.865 -62.099,-3.977l-74.898,43.541l-34.571,127.234l38.765,144.517c0.973,3.626 -3.724,9.358 -0.568,7.542c-0,-0 86.627,-48.684 87.495,-49.343l92.088,-69.723c16.914,-12.938 26.255,-37.169 26.255,-68.11c-0.004,-48.568 -32.45,-107.522 -72.467,-131.681Z" style="fill:#c52887;fill-rule:nonzero;"/></g><g id="XMLID_501_"><g id="XMLID_513_"><path d="M255.368,644.884c16.915,-12.941 26.255,-37.169 26.255,-68.11c-0,-48.571 -32.446,-107.529 -72.463,-131.685c-28.936,-17.464 -58.411,-10.983 -67.838,3.999c-0,0 -17.389,-55.053 -67.911,-85.932c-38.663,-23.634 -72.398,-4.328 -72.398,44.244c-0,30.94 9.391,66.474 26.396,99.89l92.037,180.85c11.656,22.903 32.178,35.294 43.838,26.464l92.084,-69.72Z" style="fill:#ff3e6f;fill-rule:nonzero;"/></g></g><g id="XMLID_495_"><g id="XMLID_500_"><path d="M214.82,620.862c10.903,-8.341 16.921,-23.953 16.921,-43.892l0,-0.004c0,-31.299 -20.906,-69.296 -46.701,-84.865c-18.647,-11.254 -37.643,-7.078 -43.718,2.581c-0,-0 -11.208,-35.483 -43.766,-55.386c-24.92,-15.232 -46.661,-2.79 -46.661,28.516c-0,19.94 6.05,42.839 17.008,64.375l59.316,116.551c7.513,14.761 20.739,22.748 28.256,17.059l59.345,-44.935Z" style="fill:#fff;fill-rule:nonzero;"/></g></g></g></g></svg>