<?xml version="1.0" encoding="UTF-8" standalone="no"?>
<!DOCTYPE svg PUBLIC "-//W3C//DTD SVG 1.1//EN" "http://www.w3.org/Graphics/SVG/1.1/DTD/svg11.dtd">
<svg width="100%" height="100%" viewBox="0 0 237 231" version="1.1" xmlns="http://www.w3.org/2000/svg" xmlns:xlink="http://www.w3.org/1999/xlink" xml:space="preserve" xmlns:serif="http://www.serif.com/" style="fill-rule:evenodd;clip-rule:evenodd;stroke-linejoin:round;stroke-miterlimit:2;">
    <g transform="matrix(1,0,0,1,-492,-89)">
        <g transform="matrix(1.12581,0,0,1.12581,325.732,-363.947)">
            <g>
                <path d="M278.314,519.43C283.305,522.327 290.24,520.954 293.748,516.375L293.79,516.322C297.29,511.744 304.235,510.369 309.221,513.263L352.678,538.195C357.667,541.091 360.42,548.158 355.366,551.786L266.802,603.1C259.941,608.59 254.204,607.802 249.22,604.906L155.7,550.56C150.722,547.666 149.508,541.549 153.015,536.967L225.312,500.656C232.37,497.173 238.623,496.367 243.612,499.263L278.314,519.43Z" style="fill:rgb(21,87,119);fill-rule:nonzero;"/>
            </g>
            <g>
                <g>
                    <path d="M352.699,455.627L258.98,402.382C258.98,434.767 265.92,444.802 237.749,461.583C229.282,466.627 214.862,475.131 187.079,489.731C175.807,495.654 173.988,503.212 168.288,508.041C162.765,512.72 156.64,513.999 154.162,515.443L249.261,570.432C251.038,569.378 257.942,567.807 264.017,562.661C269.717,557.833 271.537,550.275 282.808,544.351C310.592,529.751 332.512,517.347 340.573,511.679C359.928,498.069 352.699,484.339 352.699,455.627Z" style="fill:rgb(234,233,236);fill-rule:nonzero;"/>
                </g>
                <g>
                    <path d="M277.338,493.516L279.759,492.118L274.886,489.305L272.465,490.703L277.338,493.516ZM297.653,496.457L270.328,480.681L267.907,482.079L295.232,497.855L297.653,496.457ZM288.238,487.825L290.659,486.428L281.957,481.404L279.536,482.801L288.238,487.825ZM301.591,486.748L282.011,475.443L279.59,476.84L299.17,488.145L301.591,486.748ZM250.796,478.191L270.377,489.496L272.798,488.098L253.217,476.793L250.796,478.191ZM257.867,470.291L277.447,481.596L279.868,480.198L260.288,468.893L257.867,470.291ZM316.711,507.46L299.742,497.663L297.321,499.06L314.29,508.858L316.711,507.46ZM326.447,495.106L299.122,479.33L296.701,480.728L324.026,496.504L326.447,495.106ZM297.034,478.125L277.454,466.82L275.033,468.217L294.613,479.522L297.034,478.125ZM303.68,487.953L301.259,489.351L306.132,492.164L308.553,490.767L303.68,487.953ZM303.517,505.834L281.849,493.323L279.428,494.72L301.096,507.231L303.517,505.834ZM290.326,489.031L306.861,498.577L309.282,497.18L292.747,487.633L290.326,489.031ZM308.949,499.783L326.643,509.999L329.065,508.602L311.37,498.385L308.949,499.783ZM316.378,510.064L321.455,512.995L323.876,511.597L318.8,508.666L316.378,510.064ZM251.129,475.588L242.456,470.58L240.035,471.978L248.708,476.985L251.129,475.588ZM328.536,496.313L326.115,497.711L337.022,504.008L339.443,502.61L328.536,496.313ZM332.311,504.483L310.642,491.972L308.221,493.37L329.89,505.88L332.311,504.483ZM275.365,465.614L263.211,458.596L260.79,459.994L272.944,467.012L275.365,465.614ZM268.24,479.475L247.645,467.584L245.224,468.982L265.819,480.873L268.24,479.475ZM258.2,467.687L252.833,464.589L250.412,465.986L255.779,469.085L258.2,467.687ZM279.923,474.237L258.022,461.592L255.601,462.989L277.502,475.634L279.923,474.237Z" style="fill:rgb(181,196,209);fill-rule:nonzero;"/>
                </g>
                <g>
                    <path d="M251.22,508.439L253.641,507.042L248.768,504.229L246.347,505.627L251.22,508.439ZM271.536,511.382L244.211,495.606L241.79,497.004L269.115,512.779L271.536,511.382ZM262.12,502.75L264.541,501.352L255.839,496.329L253.418,497.726L262.12,502.75ZM275.473,501.672L255.893,490.367L253.472,491.765L273.052,503.07L275.473,501.672ZM224.678,493.116L244.258,504.421L246.679,503.023L227.099,491.718L224.678,493.116ZM231.749,485.215L251.329,496.52L253.75,495.123L234.17,483.818L231.749,485.215ZM290.594,522.385L273.624,512.588L271.203,513.985L288.172,523.783L290.594,522.385ZM300.329,510.031L273.004,494.255L270.583,495.653L297.908,511.429L300.329,510.031ZM270.916,493.049L251.336,481.744L248.915,483.142L268.495,494.447L270.916,493.049ZM277.562,502.878L275.141,504.276L280.014,507.089L282.435,505.691L277.562,502.878ZM277.398,520.758L255.73,508.248L253.309,509.646L274.977,522.156L277.398,520.758ZM264.208,503.956L280.743,513.502L283.164,512.104L266.63,502.558L264.208,503.956ZM282.831,514.708L300.526,524.924L302.947,523.526L285.252,513.31L282.831,514.708ZM290.261,524.988L295.337,527.92L297.758,526.522L292.682,523.591L290.261,524.988ZM225.011,490.512L216.338,485.505L213.916,486.902L222.589,491.91L225.011,490.512ZM302.418,511.237L299.997,512.634L310.904,518.931L313.325,517.534L302.418,511.237ZM306.192,519.408L284.524,506.897L282.103,508.294L303.771,520.805L306.192,519.408ZM249.247,480.539L237.093,473.521L234.672,474.919L246.826,481.937L249.247,480.539ZM242.122,494.399L221.526,482.508L219.105,483.906L239.7,495.797L242.122,494.399ZM232.082,482.611L226.716,479.513L224.295,480.91L229.661,484.009L232.082,482.611ZM253.805,489.162L231.904,476.517L229.483,477.914L251.384,490.559L253.805,489.162Z" style="fill:rgb(181,196,209);fill-rule:nonzero;"/>
                </g>
                <g>
                    <path d="M232.833,519.982L235.254,518.584L226.552,513.56L224.131,514.958L232.833,519.982ZM246.187,518.904L226.607,507.599L224.186,508.997L243.766,520.302L246.187,518.904ZM202.461,502.447L222.042,513.752L224.463,512.354L204.882,501.05L202.461,502.447ZM271.042,527.264L243.717,511.488L241.295,512.886L268.621,528.661L271.042,527.264ZM241.628,510.281L222.048,498.976L219.627,500.374L239.207,511.679L241.628,510.281ZM248.275,520.11L245.854,521.507L250.727,524.321L253.148,522.923L248.275,520.11ZM273.131,528.47L270.71,529.867L281.617,536.164L284.038,534.767L273.131,528.47ZM276.905,536.641L255.237,524.13L252.816,525.527L274.484,538.038L276.905,536.641ZM219.96,497.771L207.806,490.753L205.385,492.151L217.539,499.168L219.96,497.771ZM198.13,522.167L177.534,510.276L175.113,511.673L195.708,523.564L198.13,522.167ZM202.794,499.844L197.428,496.745L195.007,498.143L200.373,501.242L202.794,499.844ZM224.518,506.395L202.618,493.75L200.196,495.147L222.097,507.792L224.518,506.395Z" style="fill:rgb(181,196,209);fill-rule:nonzero;"/>
                </g>
                <g>
                    <g>
                        <path d="M269.028,417.934L271.262,419.223L271.262,433.47L269.028,432.18L269.028,417.934Z" style="fill:rgb(27,0,68);fill-rule:nonzero;"/>
                    </g>
                    <g>
                        <path d="M276.229,429.336L275.413,426.361L275.325,426.31L275.609,428.936L275.609,435.978L273.498,434.759L273.498,420.411L275.219,421.404L278.784,430.626L279.547,433.528L279.653,433.591L279.37,431.005L279.37,423.902L281.48,425.12L281.48,439.468L279.76,438.475L276.229,429.336Z" style="fill:rgb(27,0,68);fill-rule:nonzero;"/>
                    </g>
                    <g>
                        <path d="M287.863,439.391C287.863,438.957 287.75,438.522 287.526,438.086C287.301,437.652 287.021,437.201 286.683,436.735C286.347,436.269 285.98,435.779 285.584,435.265C285.187,434.751 284.821,434.207 284.484,433.633C284.148,433.059 283.866,432.449 283.642,431.804C283.417,431.158 283.305,430.463 283.305,429.716C283.305,429.025 283.396,428.491 283.58,428.114C283.764,427.738 284.015,427.49 284.333,427.37C284.652,427.248 285.031,427.243 285.468,427.352C285.906,427.463 286.372,427.661 286.869,427.948C287.472,428.296 288.033,428.688 288.554,429.125C289.074,429.561 289.506,429.993 289.849,430.422L289.157,432.281C288.956,432.002 288.657,431.68 288.261,431.316C287.865,430.952 287.436,430.636 286.975,430.37C286.514,430.104 286.159,430.009 285.911,430.082C285.663,430.155 285.539,430.403 285.539,430.823C285.539,431.203 285.651,431.604 285.875,432.024C286.1,432.447 286.381,432.89 286.717,433.356C287.054,433.822 287.42,434.315 287.817,434.835C288.213,435.356 288.579,435.906 288.916,436.487C289.253,437.068 289.534,437.685 289.759,438.337C289.984,438.988 290.096,439.675 290.096,440.394C290.096,441.114 290.005,441.684 289.822,442.108C289.638,442.531 289.379,442.819 289.041,442.969C288.705,443.121 288.299,443.149 287.827,443.052C287.354,442.955 286.827,442.739 286.248,442.405C285.515,441.982 284.873,441.53 284.323,441.05C283.774,440.571 283.351,440.143 283.055,439.769L283.783,437.89C284.019,438.189 284.345,438.539 284.758,438.941C285.172,439.343 285.615,439.68 286.088,439.953C287.272,440.637 287.863,440.449 287.863,439.391Z" style="fill:rgb(27,0,68);fill-rule:nonzero;"/>
                    </g>
                    <g>
                        <path d="M297.227,434.214L299.338,435.433L299.338,444.672C299.338,446.518 299.009,447.665 298.354,448.113C297.698,448.562 296.79,448.452 295.631,447.783C294.271,446.998 293.276,446.018 292.643,444.846C292.01,443.673 291.695,442.26 291.695,440.605L291.695,431.019L293.929,432.309L293.929,441.447C293.929,442.56 294.059,443.412 294.319,444.002C294.579,444.594 295.011,445.064 295.613,445.411C296.193,445.746 296.606,445.751 296.855,445.426C297.103,445.102 297.228,444.41 297.228,443.353L297.228,434.214L297.227,434.214Z" style="fill:rgb(27,0,68);fill-rule:nonzero;"/>
                    </g>
                    <g>
                        <path d="M301.324,436.722C301.809,436.88 302.329,437.092 302.885,437.358C303.441,437.626 303.919,437.875 304.322,438.107C304.83,438.401 305.326,438.745 305.812,439.139C306.296,439.535 306.725,439.993 307.097,440.513C307.47,441.034 307.772,441.621 308.002,442.277C308.233,442.932 308.348,443.661 308.348,444.461C308.348,445.614 308.162,446.446 307.79,446.957C307.416,447.469 306.905,447.672 306.256,447.567L306.964,448.628L309.253,455.403L306.681,453.919L304.517,447.053L303.559,446.236L303.559,452.117L301.324,450.827L301.324,436.722ZM303.559,444.483L304.322,444.923C304.878,445.244 305.298,445.293 305.581,445.07C305.866,444.846 306.007,444.328 306.007,443.514C306.007,442.904 305.889,442.336 305.653,441.814C305.416,441.291 305.044,440.881 304.536,440.588C304.347,440.479 304.163,440.38 303.987,440.291C303.809,440.203 303.667,440.146 303.561,440.127L303.561,444.483L303.559,444.483Z" style="fill:rgb(27,0,68);fill-rule:nonzero;"/>
                    </g>
                    <g>
                        <path d="M315.14,455.546L312.214,453.857L311.487,456.693L309.27,455.414L312.871,443.144L314.626,444.158L318.244,460.595L315.903,459.243L315.14,455.546ZM312.692,452.057L314.75,453.245L314.041,449.518L313.757,447.116L313.686,447.075L313.385,449.16L312.692,452.057Z" style="fill:rgb(27,0,68);fill-rule:nonzero;"/>
                    </g>
                    <g>
                        <path d="M322.181,455.866L321.366,452.891L321.277,452.84L321.56,455.466L321.56,462.508L319.45,461.289L319.45,446.94L321.17,447.934L324.735,457.156L325.497,460.059L325.603,460.12L325.319,457.535L325.319,450.432L327.429,451.651L327.429,466L325.709,465.006L322.181,455.866Z" style="fill:rgb(27,0,68);fill-rule:nonzero;"/>
                    </g>
                    <g>
                        <path d="M336.511,470.57C336.203,470.691 335.792,470.672 335.278,470.51C334.764,470.348 334.253,470.12 333.744,469.827C333.105,469.458 332.511,468.99 331.962,468.421C331.412,467.854 330.93,467.158 330.516,466.335C330.102,465.513 329.777,464.559 329.54,463.473C329.304,462.386 329.186,461.152 329.186,459.767C329.186,458.329 329.319,457.212 329.585,456.415C329.852,455.62 330.2,455.064 330.631,454.751C331.063,454.437 331.556,454.325 332.112,454.415C332.668,454.505 333.229,454.714 333.797,455.042C334.377,455.376 334.882,455.723 335.314,456.08C335.746,456.437 336.097,456.763 336.369,457.056L335.926,459.059C335.701,458.793 335.438,458.537 335.137,458.288C334.835,458.04 334.477,457.796 334.064,457.557C333.249,457.086 332.621,457.132 332.184,457.693C331.746,458.255 331.527,459.405 331.527,461.141C331.527,461.887 331.577,462.598 331.678,463.273C331.778,463.949 331.938,464.573 332.157,465.147C332.375,465.721 332.654,466.227 332.99,466.667C333.327,467.105 333.732,467.461 334.205,467.734C334.619,467.973 334.973,468.114 335.269,468.155C335.564,468.197 335.831,468.198 336.068,468.158L336.511,470.57Z" style="fill:rgb(27,0,68);fill-rule:nonzero;"/>
                    </g>
                    <g>
                        <path d="M338.018,457.765L344.225,461.349L344.225,463.71L340.252,461.416L340.252,464.916L343.853,466.994L343.853,469.355L340.252,467.276L340.252,470.939L344.296,473.274L344.296,475.634L338.018,472.01L338.018,457.765Z" style="fill:rgb(27,0,68);fill-rule:nonzero;"/>
                    </g>
                </g>
            </g>
            <g>
                <path d="M266.477,515.252L216.429,486.164L218.554,473.389C219.008,470.66 217.421,467.288 215.026,465.897L169.105,439.208C166.712,437.817 164.382,438.913 163.928,441.642L148.366,534.954C147.422,540.638 150.722,547.668 155.713,550.558L251.372,606.156C256.352,609.053 261.207,606.77 262.147,601.084L273.826,530.862C274.771,525.177 271.466,518.151 266.477,515.252Z" style="fill:rgb(11,222,174);fill-rule:nonzero;"/>
            </g>
        </g>
    </g>
</svg>
