<?xml version="1.0" encoding="UTF-8" standalone="no"?>
<!DOCTYPE svg PUBLIC "-//W3C//DTD SVG 1.1//EN" "http://www.w3.org/Graphics/SVG/1.1/DTD/svg11.dtd">
<svg width="100%" height="100%" viewBox="0 0 239 247" version="1.1" xmlns="http://www.w3.org/2000/svg" xmlns:xlink="http://www.w3.org/1999/xlink" xml:space="preserve" xmlns:serif="http://www.serif.com/" style="fill-rule:evenodd;clip-rule:evenodd;stroke-linejoin:round;stroke-miterlimit:2;">
    <g transform="matrix(1,0,0,1,-1530,-89)">
        <g transform="matrix(1.12581,0,0,1.12581,398.021,-356.641)">
            <g>
                <path d="M1020.11,476.739C1022.67,478.017 1044.42,490.287 1047.03,491.458C1066.2,500.059 1074.8,485.688 1110.16,492.744C1111.27,490.718 1111.61,488.758 1110.92,486.949C1102.19,464.053 1102.84,476.469 1100.98,458.293C1100.4,452.613 1100.36,447.195 1105.49,443.477C1107.12,442.292 1109.58,441.975 1111.09,443.307C1112.33,444.399 1112.7,446.397 1113.5,447.801C1121.54,461.864 1126.96,463.531 1134.86,476.691C1141.55,487.825 1150.91,524.215 1159.88,537.939C1169.74,553.045 1140.31,584.905 1114.84,569.943C1099.18,560.747 1064.33,554.372 1061.3,550.043C1057.43,544.526 1029.67,501.756 1026.95,499.542C1025.26,498.158 1006.9,485.464 1005.97,481.924C1003.74,473.4 1015.56,474.467 1020.11,476.739Z" style="fill:rgb(254,183,50);fill-rule:nonzero;"/>
            </g>
            <g>
                <path d="M1110.42,492.221C1111.31,490.381 1111.55,488.602 1110.92,486.95C1102.19,464.054 1102.84,476.47 1100.98,458.294C1100.4,452.614 1100.36,447.196 1105.49,443.478C1107.12,442.293 1109.58,441.976 1111.09,443.308C1111.4,443.584 1111.66,443.919 1111.89,444.287C1111.04,444.539 1110.24,444.881 1109.53,445.33C1104.41,448.57 1103.85,454.629 1106.3,459.681C1110.77,468.926 1114.8,478.547 1119.68,487.535C1121.5,490.896 1120.47,499.77 1110.42,492.221Z" style="fill:rgb(255,101,86);fill-rule:nonzero;"/>
            </g>
            <g>
                <path d="M1089.95,496.234C1086.08,497.227 1062.11,501.005 1058.82,501.853C1058.54,501.923 1041.39,491.728 1037.38,490.361C1029.26,487.589 1021.35,483.443 1012.64,483.173C1010.66,483.11 1009,483.523 1007.63,484.255C1006.72,483.298 1006.12,482.491 1005.97,481.922C1003.74,473.4 1015.55,474.466 1020.11,476.738C1022.67,478.016 1044.42,490.286 1047.03,491.457C1064.75,499.406 1073.46,487.744 1102.6,491.503C1100.51,492.086 1092.59,495.555 1089.95,496.234Z" style="fill:rgb(255,62,111);fill-rule:nonzero;"/>
            </g>
            <g>
                <g>
                    <path d="M1137.68,474.027L1108.21,395.893L1044.56,418.789L1137.68,474.027Z" style="fill:rgb(128,128,128);fill-rule:nonzero;"/>
                </g>
                <g>
                    <path d="M1137.68,474.027L1074.19,491.566L1044.56,418.789L1137.68,474.027Z" style="fill:rgb(66,68,69);fill-rule:nonzero;"/>
                </g>
                <g transform="matrix(1.12545,0,0,1.12545,-137.851,-61.4958)">
                    <g>
                        <path d="M1064.96,431.197L1053.25,472.401L1116.52,509.932L1129,469.182L1064.96,431.197Z" style="fill:rgb(11,222,174);fill-rule:nonzero;"/>
                    </g>
                    <g>
                        <g>
                            <path d="M1115.06,506.159L1114.52,505.834L1056.18,471.233L1066.48,435.003L1067.04,435.335L1126.03,470.329L1125.92,470.705L1115.06,506.159ZM1057.35,470.767L1114.48,504.65L1124.84,470.789L1067.09,436.527L1057.35,470.767Z" style="fill:rgb(11,222,174);fill-rule:nonzero;"/>
                        </g>
                    </g>
                    <g>
                        <g>
                            <path d="M1115.06,506.156L1114.51,505.831L1056.17,471.234L1066.48,434.999L1126.03,470.331L1123.3,479.258L1115.06,506.156ZM1057.35,470.768L1114.48,504.647L1124.85,470.791L1067.08,436.523L1057.35,470.768Z" style="fill:rgb(11,222,174);fill-rule:nonzero;"/>
                        </g>
                    </g>
                    <g>
                        <g>
                            <g>
                                <path d="M1090.98,486.719C1089.09,486.719 1087.17,486.093 1085.37,484.865C1079.17,480.649 1075.93,470.418 1078.14,462.058C1079.33,457.587 1081.9,454.315 1085.22,453.079C1087.97,452.048 1091.01,452.519 1093.78,454.4C1099.97,458.615 1103.21,468.846 1101,477.207C1099.82,481.678 1097.24,484.95 1093.93,486.186C1092.97,486.543 1091.98,486.719 1090.98,486.719ZM1088.16,453.547C1087.27,453.547 1086.4,453.701 1085.57,454.015C1082.56,455.136 1080.21,458.161 1079.11,462.314C1076.99,470.296 1080.05,480.042 1085.93,484.039C1088.41,485.73 1091.13,486.161 1093.57,485.25C1096.58,484.128 1098.93,481.104 1100.03,476.951C1102.14,468.968 1099.09,459.222 1093.21,455.226C1091.58,454.114 1089.85,453.547 1088.16,453.547Z" style="fill:rgb(11,222,174);fill-rule:nonzero;"/>
                            </g>
                        </g>
                    </g>
                    <g>
                        <g>
                            <path d="M1092.72,457.74C1097.57,461.041 1100.09,469.038 1098.35,475.607C1096.62,482.175 1091.27,484.824 1086.42,481.523C1081.57,478.222 1079.05,470.225 1080.79,463.657C1082.53,457.088 1087.87,454.439 1092.72,457.74Z" style="fill:rgb(11,222,174);fill-rule:nonzero;"/>
                        </g>
                    </g>
                    <g>
                        <g>
                            <path d="M1125.44,470.561L1122.82,479.112C1122.29,478.992 1121.76,478.752 1121.24,478.401C1118.47,476.511 1117.02,471.931 1118.02,468.172C1118.18,467.562 1118.39,467.012 1118.65,466.532L1125.44,470.561Z" style="fill:rgb(11,222,174);fill-rule:nonzero;"/>
                        </g>
                    </g>
                    <g>
                        <g>
                            <path d="M1056.47,470.875L1059.09,462.324C1059.62,462.443 1060.15,462.683 1060.66,463.033C1063.44,464.922 1064.89,469.502 1063.89,473.262C1063.73,473.872 1063.52,474.422 1063.26,474.903L1056.47,470.875Z" style="fill:rgb(11,222,174);fill-rule:nonzero;"/>
                        </g>
                    </g>
                    <g>
                        <g>
                            <path d="M1072.95,439.421C1072.91,440.061 1072.81,440.701 1072.65,441.321C1071.66,445.081 1068.6,446.601 1065.82,444.711C1065.36,444.4 1064.94,444.011 1064.56,443.571L1066.78,435.76L1072.95,439.421Z" style="fill:rgb(11,222,174);fill-rule:nonzero;"/>
                        </g>
                    </g>
                    <g>
                        <g>
                            <path d="M1108.7,501.874C1108.76,501.235 1108.88,500.599 1109.06,499.984C1110.16,496.256 1113.27,494.834 1115.99,496.81C1116.44,497.134 1116.85,497.538 1117.21,497.989L1114.75,505.726L1108.7,501.874Z" style="fill:rgb(11,222,174);fill-rule:nonzero;"/>
                        </g>
                    </g>
                </g>
                <g transform="matrix(1.12545,0,0,1.12545,-137.851,-61.4958)">
                    <g>
                        <path d="M1055.6,438.307L1043.88,479.511L1107.15,517.041L1119.63,476.291L1055.6,438.307Z" style="fill:rgb(11,222,174);fill-rule:nonzero;"/>
                    </g>
                    <g>
                        <g>
                            <path d="M1105.69,513.269L1105.15,512.944L1046.81,478.343L1057.11,442.113L1057.67,442.445L1116.66,477.439L1116.55,477.815L1105.69,513.269ZM1047.98,477.876L1105.11,511.759L1115.48,477.898L1057.72,443.636L1047.98,477.876Z" style="fill:rgb(21,87,119);fill-rule:nonzero;"/>
                        </g>
                    </g>
                    <g>
                        <g>
                            <path d="M1105.69,513.266L1105.15,512.941L1046.81,478.345L1057.11,442.11L1116.67,477.442L1113.93,486.368L1105.69,513.266ZM1047.98,477.878L1105.11,511.756L1115.48,477.901L1057.72,443.633L1047.98,477.878Z" style="fill:rgb(21,87,119);fill-rule:nonzero;"/>
                        </g>
                    </g>
                    <g>
                        <g>
                            <g>
                                <path d="M1081.61,493.828C1079.73,493.828 1077.8,493.202 1076,491.974C1069.8,487.76 1066.56,477.529 1068.78,469.168C1069.96,464.697 1072.54,461.425 1075.85,460.189C1078.6,459.159 1081.64,459.629 1084.41,461.51C1090.61,465.725 1093.85,475.955 1091.63,484.316C1090.45,488.787 1087.87,492.059 1084.56,493.295C1083.6,493.652 1082.61,493.828 1081.61,493.828ZM1078.79,460.657C1077.91,460.657 1077.04,460.811 1076.2,461.125C1073.19,462.247 1070.84,465.271 1069.74,469.424C1067.63,477.407 1070.69,487.153 1076.56,491.148C1079.05,492.839 1081.77,493.274 1084.21,492.359C1087.21,491.238 1089.57,488.213 1090.67,484.06C1092.78,476.078 1089.72,466.332 1083.85,462.336C1082.21,461.225 1080.48,460.657 1078.79,460.657Z" style="fill:rgb(21,87,119);fill-rule:nonzero;"/>
                            </g>
                        </g>
                    </g>
                    <g>
                        <g>
                            <path d="M1083.35,464.85C1088.21,468.151 1090.73,476.149 1088.99,482.717C1087.25,489.285 1081.91,491.934 1077.06,488.634C1072.2,485.333 1069.68,477.336 1071.42,470.767C1073.16,464.198 1078.5,461.55 1083.35,464.85Z" style="fill:rgb(21,87,119);fill-rule:nonzero;"/>
                        </g>
                    </g>
                    <g>
                        <g>
                            <path d="M1116.07,477.671L1113.45,486.221C1112.92,486.101 1112.39,485.862 1111.87,485.511C1109.1,483.621 1107.65,479.041 1108.65,475.282C1108.81,474.672 1109.02,474.122 1109.28,473.641L1116.07,477.671Z" style="fill:rgb(21,87,119);fill-rule:nonzero;"/>
                        </g>
                    </g>
                    <g>
                        <g>
                            <path d="M1047.1,477.985L1049.72,469.433C1050.25,469.553 1050.78,469.792 1051.3,470.143C1054.07,472.031 1055.52,476.611 1054.53,480.371C1054.37,480.981 1054.16,481.531 1053.9,482.012L1047.1,477.985Z" style="fill:rgb(21,87,119);fill-rule:nonzero;"/>
                        </g>
                    </g>
                    <g>
                        <g>
                            <path d="M1063.58,446.531C1063.54,447.171 1063.44,447.81 1063.28,448.43C1062.29,452.19 1059.23,453.71 1056.45,451.82C1055.99,451.51 1055.57,451.121 1055.19,450.68L1057.41,442.87L1063.58,446.531Z" style="fill:rgb(21,87,119);fill-rule:nonzero;"/>
                        </g>
                    </g>
                    <g>
                        <g>
                            <path d="M1099.33,508.983C1099.39,508.345 1099.51,507.709 1099.69,507.093C1100.8,503.366 1103.9,501.944 1106.62,503.919C1107.07,504.244 1107.48,504.647 1107.85,505.099L1105.38,512.835L1099.33,508.983Z" style="fill:rgb(21,87,119);fill-rule:nonzero;"/>
                        </g>
                    </g>
                </g>
                <g transform="matrix(1.12545,0,0,1.12545,-137.851,-61.4958)">
                    <g>
                        <path d="M1059.15,422.65L1047.44,463.854L1110.71,501.385L1123.18,460.635L1059.15,422.65Z" style="fill:rgb(11,222,174);fill-rule:nonzero;"/>
                    </g>
                    <g>
                        <g>
                            <path d="M1109.25,497.612L1108.7,497.287L1050.37,462.686L1060.67,426.456L1061.23,426.788L1120.22,461.782L1120.11,462.158L1109.25,497.612ZM1051.54,462.22L1108.67,496.103L1119.03,462.242L1061.27,427.98L1051.54,462.22Z" style="fill:rgb(21,87,119);fill-rule:nonzero;"/>
                        </g>
                    </g>
                    <g>
                        <g>
                            <path d="M1109.25,497.609L1108.7,497.284L1050.36,462.687L1060.66,426.453L1120.22,461.784L1117.49,470.711L1109.25,497.609ZM1051.54,462.221L1108.67,496.1L1119.04,462.244L1061.27,427.977L1051.54,462.221Z" style="fill:rgb(21,87,119);fill-rule:nonzero;"/>
                        </g>
                    </g>
                    <g>
                        <g>
                            <g>
                                <path d="M1085.17,478.172C1083.28,478.172 1081.36,477.546 1079.56,476.318C1073.36,472.103 1070.12,461.872 1072.33,453.511C1073.52,449.041 1076.09,445.769 1079.4,444.532C1082.16,443.503 1085.2,443.97 1087.97,445.852C1094.16,450.068 1097.4,460.299 1095.19,468.659C1094.01,473.13 1091.43,476.402 1088.12,477.638C1087.16,477.996 1086.17,478.172 1085.17,478.172ZM1082.35,445C1081.46,445 1080.59,445.155 1079.75,445.469C1076.75,446.591 1074.4,449.615 1073.3,453.767C1071.18,461.75 1074.24,471.496 1080.12,475.492C1082.61,477.184 1085.32,477.616 1087.76,476.703C1090.77,475.582 1093.12,472.557 1094.22,468.404C1096.34,460.422 1093.28,450.676 1087.4,446.679C1085.77,445.567 1084.04,445 1082.35,445Z" style="fill:rgb(21,87,119);fill-rule:nonzero;"/>
                            </g>
                        </g>
                    </g>
                    <g>
                        <g>
                            <path d="M1086.91,449.193C1091.76,452.494 1094.28,460.491 1092.54,467.06C1090.8,473.628 1085.46,476.277 1080.61,472.976C1075.76,469.676 1073.24,461.678 1074.98,455.11C1076.72,448.541 1082.06,445.893 1086.91,449.193Z" style="fill:rgb(21,87,119);fill-rule:nonzero;"/>
                        </g>
                    </g>
                    <g>
                        <g>
                            <path d="M1119.63,462.014L1117.01,470.565C1116.48,470.445 1115.95,470.205 1115.43,469.855C1112.66,467.965 1111.21,463.385 1112.21,459.625C1112.37,459.015 1112.58,458.466 1112.84,457.985L1119.63,462.014Z" style="fill:rgb(21,87,119);fill-rule:nonzero;"/>
                        </g>
                    </g>
                    <g>
                        <g>
                            <path d="M1050.66,462.329L1053.27,453.777C1053.8,453.897 1054.34,454.136 1054.86,454.486C1057.63,456.375 1059.08,460.955 1058.08,464.715C1057.92,465.325 1057.71,465.875 1057.45,466.356L1050.66,462.329Z" style="fill:rgb(21,87,119);fill-rule:nonzero;"/>
                        </g>
                    </g>
                    <g>
                        <g>
                            <path d="M1067.14,430.874C1067.1,431.514 1067,432.154 1066.84,432.774C1065.85,436.534 1062.79,438.054 1060.01,436.164C1059.55,435.854 1059.13,435.465 1058.75,435.024L1060.97,427.214L1067.14,430.874Z" style="fill:rgb(21,87,119);fill-rule:nonzero;"/>
                        </g>
                    </g>
                    <g>
                        <g>
                            <path d="M1102.89,493.327C1102.95,492.688 1103.07,492.052 1103.25,491.437C1104.35,487.71 1107.46,486.287 1110.18,488.263C1110.63,488.587 1111.04,488.991 1111.4,489.443L1108.94,497.179L1102.89,493.327Z" style="fill:rgb(21,87,119);fill-rule:nonzero;"/>
                        </g>
                    </g>
                </g>
                <g>
                    <g>
                        <path d="M1044.55,418.787L1020.57,499.775L1112.61,554.362L1137.69,474.035L1074.18,491.58L1044.55,418.787Z" style="fill:rgb(234,233,236);fill-rule:nonzero;"/>
                    </g>
                </g>
                <g>
                    <path d="M1074.19,491.566L1112.62,554.355L1020.59,499.764L1074.19,491.566Z" style="fill:rgb(128,128,128);fill-rule:nonzero;"/>
                </g>
            </g>
            <g>
                <path d="M1045.02,516.646C1041.59,512.846 1032.01,504.413 1032.01,504.413C1031.16,501.328 1028.54,496.568 1026.43,493.205C1022.75,487.341 1011.27,483.758 1010.11,490.439C1009.41,494.473 1020.34,516.925 1022.03,518.695C1026.14,522.98 1035.95,533.952 1038.73,535.09C1047.38,538.632 1051.43,543.653 1054.22,540.628C1058.57,535.904 1049.33,521.412 1045.02,516.646Z" style="fill:rgb(254,183,50);fill-rule:nonzero;"/>
            </g>
            <g>
                <path d="M1040.86,521.118C1041.62,520.364 1037.89,511.41 1038.43,510.567C1035.09,507.402 1032.01,504.413 1032.01,504.413C1031.25,501.682 1029.11,497.641 1027.17,494.415C1028.71,498.914 1029.61,501.189 1030.88,505.829C1030.95,505.988 1039.2,519.338 1040.86,521.118Z" style="fill:rgb(255,62,111);fill-rule:nonzero;"/>
            </g>
            <g>
                <path d="M1161.35,541.531C1095.82,569.107 1053.72,535.386 1053.72,535.386C1055.93,541.489 1057.93,545.231 1061.3,550.041C1064.33,554.37 1099.18,560.745 1114.84,569.941C1138.37,583.768 1164.58,556.594 1161.35,541.531Z" style="fill:rgb(255,62,111);fill-rule:nonzero;"/>
            </g>
            <g transform="matrix(1,0,0,1,0,1.77649)">
                <path d="M1061.65,527.463C1058.57,523.372 1051.48,512.777 1051.48,512.777C1051.29,509.582 1050.24,502.949 1048.92,500.031C1046.58,494.839 1036.9,487.005 1032.99,494.53C1031.29,498.257 1037.45,522.57 1038.74,524.656C1041.86,529.706 1050.59,543.097 1053.56,543.508C1069.64,545.724 1062.08,528.035 1061.65,527.463Z" style="fill:rgb(254,183,50);fill-rule:nonzero;"/>
            </g>
            <g>
                <path d="M1054.88,527.777C1056.09,526.293 1057.43,524.89 1058.82,523.524C1055.51,518.805 1051.48,512.777 1051.48,512.777C1051.29,509.582 1050.24,502.949 1048.92,500.031C1048.74,499.635 1048.51,499.22 1048.25,498.801C1048.52,500.12 1049.99,509.106 1049.18,514.592C1050.72,518.809 1052.51,519.926 1054.88,527.777Z" style="fill:rgb(255,62,111);fill-rule:nonzero;"/>
            </g>
            <g>
                <g>
                    <path d="M1208.75,539.996L1171.15,518.592C1165.77,515.598 1158.39,516.094 1150.25,520.793C1133.77,530.305 1120.42,553.439 1120.42,572.464C1120.42,582.09 1123.84,588.82 1129.35,591.888L1166.86,613.235L1208.75,539.996Z" style="fill:rgb(21,87,119);fill-rule:nonzero;"/>
                </g>
            </g>
            <g>
                <g>
                    <path d="M1187.35,542.287C1170.87,551.798 1157.57,574.844 1157.62,593.773C1157.67,612.702 1171.07,620.335 1187.54,610.824C1204.01,601.312 1217.32,578.266 1217.27,559.337C1217.21,540.408 1203.82,532.775 1187.35,542.287Z" style="fill:rgb(2,38,119);fill-rule:nonzero;"/>
                </g>
            </g>
        </g>
    </g>
</svg>
