<?xml version="1.0" encoding="UTF-8" standalone="no"?>
<!DOCTYPE svg PUBLIC "-//W3C//DTD SVG 1.1//EN" "http://www.w3.org/Graphics/SVG/1.1/DTD/svg11.dtd">
<svg width="100%" height="100%" viewBox="0 0 242 237" version="1.1" xmlns="http://www.w3.org/2000/svg" xmlns:xlink="http://www.w3.org/1999/xlink" xml:space="preserve" xmlns:serif="http://www.serif.com/" style="fill-rule:evenodd;clip-rule:evenodd;stroke-linejoin:round;stroke-miterlimit:2;">
    <g transform="matrix(1,0,0,1,-135,-89)">
        <g transform="matrix(1.12581,0,0,1.12581,-28.2269,-678.392)">
            <g>
                <path d="M353.926,853.852C330.573,834.393 288.519,791.783 290.756,792.319C310.437,799.835 344.394,808.133 347.104,796.05C349.893,783.612 322.751,780.962 313.714,777.108C299.109,770.879 285.374,753.602 256.605,753.602C250.952,753.602 244.727,754.778 238.151,754.778C219.714,754.778 188.696,712.969 183.374,712.493C163.133,710.878 142.186,748.469 145.501,764.431C147.842,775.706 180.332,771.787 185.788,796.086C191.628,822.094 208.727,840.773 234.338,856.651C253.502,868.532 271.654,887.535 280.267,871.639C288.904,880.07 315.628,903.17 324.786,884.071C341.554,896.992 356.434,886.778 339.821,868.954C356.862,879.298 366.451,864.287 353.926,853.852Z" style="fill:rgb(254,183,50);fill-rule:nonzero;"/>
            </g>
            <g>
                <path d="M254.53,789.588C238.515,789.588 227.355,796.097 227.355,801.941C227.355,807.783 238.515,814.292 254.53,814.292C270.545,814.292 281.707,807.783 281.707,801.941C281.707,796.097 270.545,789.588 254.53,789.588Z" style="fill:rgb(197,40,135);fill-rule:nonzero;"/>
            </g>
            <g>
                <path d="M317.155,886.342C286.522,875.596 266.947,838.154 263.458,842.756C262.106,844.539 275.569,861.114 277.458,862.385C284.092,866.848 280.155,875.758 273.496,871.278C267.545,867.275 262.734,862.108 257.12,857.728C252.41,854.053 185.672,814.618 195.809,778.135C167.033,770.915 150.68,746.905 148.949,744.475C145.865,752.012 144.442,759.327 145.502,764.43C147.843,775.705 180.333,771.786 185.789,796.085C191.629,822.093 208.728,840.772 234.339,856.65C253.503,868.531 271.655,887.534 280.268,871.638C288.578,879.749 313.629,901.434 323.67,886.054C321.886,887.241 319.706,887.236 317.155,886.342Z" style="fill:rgb(255,62,111);fill-rule:nonzero;"/>
            </g>
            <g>
                <path d="M346.972,881.498C345.657,886.543 340.842,887.057 335.684,883.269C315.5,868.448 272.427,830.865 272.878,833.04C273.991,838.401 311.788,874.52 324.784,884.071C336.802,892.902 348.161,890.47 346.972,881.498Z" style="fill:rgb(255,62,111);fill-rule:nonzero;"/>
            </g>
            <g>
                <path d="M351.731,867.111C344.671,860.23 294.606,824.319 293.797,826.702C291.592,833.202 340.142,867.82 342.141,870.218C349.745,873.97 355.576,872.516 358.164,868.891C356.067,869.442 353.714,869.045 351.731,867.111Z" style="fill:rgb(255,62,111);fill-rule:nonzero;"/>
            </g>
            <g>
                <path d="M321.692,794.553C312.154,790.719 302.777,786.528 293.788,781.53C291.026,779.995 280.734,776.49 280.734,783.894C280.734,787.917 290.452,792.247 290.755,792.319C310.331,799.794 344.02,808.037 347.044,796.233C339.011,800.193 329.661,797.757 321.692,794.553Z" style="fill:rgb(255,62,111);fill-rule:nonzero;"/>
            </g>
            <g id="heart">
                <g id="XMLID_532_">
                    <path d="M274.743,707.422C272.064,700.528 264.357,689.296 256.478,684.541C251.3,681.415 246.595,680.955 243.028,682.679L243.008,682.655L218.514,696.733L257.691,795.094C257.692,795.094 275.252,708.731 274.743,707.422Z" style="fill:rgb(136,17,155);fill-rule:nonzero;"/>
                </g>
                <g id="XMLID_527_">
                    <path d="M293.749,707.448C288.39,704.213 280.905,703.893 276.589,706.349L255.891,718.381L246.338,753.54L257.05,793.475C257.318,794.477 256.021,796.06 256.892,795.559C256.892,795.559 280.83,782.105 281.07,781.923L306.517,762.657C311.191,759.081 313.772,752.386 313.772,743.836C313.773,730.415 304.808,714.123 293.749,707.448Z" style="fill:rgb(197,40,135);fill-rule:nonzero;"/>
                </g>
                <g id="XMLID_505_">
                    <g id="XMLID_523_">
                        <path d="M283.139,775.828C287.813,772.252 290.394,765.556 290.394,757.006C290.394,743.584 281.429,727.293 270.37,720.617C262.374,715.791 254.23,717.583 251.623,721.723C251.623,721.723 246.819,706.51 232.858,697.976C222.174,691.445 212.852,696.781 212.852,710.202L212.852,710.203C212.852,718.752 215.447,728.572 220.146,737.806L245.579,787.781C248.8,794.11 254.471,797.534 257.693,795.094L283.139,775.828Z" style="fill:rgb(255,62,111);fill-rule:nonzero;"/>
                    </g>
                </g>
                <g id="XMLID_506_">
                    <g id="XMLID_511_">
                        <path d="M271.935,769.19C274.947,766.885 276.61,762.57 276.61,757.06C276.61,748.41 270.832,737.911 263.705,733.609C258.552,730.499 253.303,731.653 251.623,734.321C251.623,734.321 248.527,724.517 239.53,719.017C232.644,714.808 226.636,718.246 226.636,726.896C226.636,732.406 228.308,738.735 231.337,744.685L247.728,776.893C249.804,780.972 253.458,783.179 255.535,781.607L271.935,769.19Z" style="fill:white;fill-rule:nonzero;"/>
                    </g>
                </g>
            </g>
        </g>
    </g>
</svg>
